<svg width="49" height="48" viewBox="0 0 49 48" fill="none" xmlns="http://www.w3.org/2000/svg">
<g filter="url(#filter0_d_734_3902)">
<circle cx="24.5" cy="23" r="20" fill="#F1634C"/>
</g>
<g clip-path="url(#clip0_734_3902)">
<path d="M31.6776 28.0453C31.4222 29.5208 30.1905 30.2068 29.124 29.9455C28.1026 29.695 27.0712 28.3938 27.677 26.7386C27.6019 26.7386 27.5368 26.7386 27.4717 26.7386C25.7293 26.7386 23.9869 26.7386 22.2394 26.7386C22.1643 26.7386 22.0892 26.744 22.0141 26.7277C21.8589 26.6896 21.7838 26.5698 21.7888 26.401C21.7938 26.2377 21.8739 26.1342 22.0191 26.0961C22.0842 26.0798 22.1543 26.0852 22.2244 26.0852C24.1371 26.0852 26.0497 26.0852 27.9624 26.0798C28.0525 26.0798 28.1577 26.0417 28.2278 25.9763C29.0189 25.2576 30.1354 25.2467 30.9365 25.96C31.0166 26.0308 31.1318 26.0743 31.2319 26.0798C31.7727 26.0907 32.3184 26.0852 32.8892 26.0852C32.8892 26.0036 32.8892 25.9328 32.8892 25.862C32.8892 25.2903 32.8842 24.7186 32.8942 24.1524C32.8942 23.9945 32.8492 23.8856 32.749 23.7821C32.4586 23.4772 32.1682 23.1669 31.8878 22.8457C31.7877 22.7313 31.7026 22.5843 31.6625 22.4373C31.3771 21.4409 31.1068 20.4391 30.8314 19.4373C30.8013 19.323 30.7713 19.1923 30.7112 19.0997C30.6561 19.0181 30.551 18.9255 30.4659 18.9255C29.2842 18.9146 28.1026 18.9201 26.8959 18.9201C26.8959 19.0072 26.8959 19.0834 26.8959 19.1651C26.8959 21.0925 26.8959 23.0253 26.8959 24.9527C26.8959 25.029 26.9009 25.1052 26.8909 25.176C26.8609 25.3556 26.7557 25.4482 26.5905 25.4428C26.4303 25.4373 26.3351 25.3448 26.3051 25.176C26.2951 25.1052 26.3001 25.029 26.3001 24.9527C26.3001 22.4482 26.3001 19.9382 26.3001 17.4337C26.3001 17.0526 26.22 16.9654 25.8695 16.9654C22.7602 16.9654 19.6458 16.9654 16.5365 16.9654C16.186 16.9654 16.1009 17.0526 16.1009 17.4282C16.1009 20.2431 16.1009 23.0526 16.1009 25.8674C16.1009 25.9328 16.1009 26.0036 16.1009 26.1016C16.2361 26.1016 16.3663 26.1016 16.4965 26.1016C16.9321 26.1016 17.3727 26.107 17.8083 26.0961C17.8784 26.0961 17.9585 26.0689 18.0086 26.0253C19.3304 24.8602 21.1079 25.5408 21.4734 27.3593C21.4734 27.3647 21.4784 27.3702 21.4884 27.4028C21.5535 27.4028 21.6236 27.4028 21.6987 27.4028C23.2859 27.4028 24.8731 27.4028 26.4603 27.4028C26.5154 27.4028 26.5755 27.3974 26.6305 27.4028C26.8008 27.4192 26.9059 27.5444 26.9059 27.7295C26.9059 27.9092 26.8008 28.0344 26.6305 28.0507C26.5705 28.0562 26.5054 28.0562 26.4453 28.0562C24.8731 28.0562 23.2959 28.0562 21.7237 28.0562C21.6486 28.0562 21.5735 28.0562 21.4884 28.0562C21.3782 28.7041 21.0929 29.2322 20.5972 29.6079C20.2066 29.9074 19.766 30.038 19.2903 30.0108C18.329 29.9618 17.5579 29.205 17.3326 28.0562C17.2325 28.0562 17.1273 28.0562 17.0272 28.0562C16.6417 28.0562 16.2511 28.0562 15.8656 28.0562C15.6303 28.0562 15.5251 27.9364 15.5151 27.6805C15.5151 27.6424 15.5151 27.5988 15.5151 27.5607C15.5151 24.185 15.5151 20.8094 15.5151 17.4337C15.5001 16.6932 15.8556 16.3066 16.5115 16.3066C19.6358 16.3066 22.7602 16.3066 25.8845 16.3066C26.5354 16.3066 26.8959 16.6987 26.8959 17.401C26.8959 17.6787 26.8959 17.9564 26.8959 18.2613C27.1012 18.2613 27.3015 18.2613 27.4967 18.2613C27.687 18.2613 27.8823 18.2613 28.0976 18.2613C28.0675 17.8366 28.1126 17.4446 28.4381 17.1669C28.6183 17.0144 28.8236 16.9437 29.0489 16.96C29.5846 16.9927 29.84 17.3792 29.9051 18.2613C30.0753 18.2613 30.2456 18.2667 30.4208 18.2613C30.8364 18.2449 31.1268 18.4573 31.272 18.8602C31.4372 19.3175 31.5574 19.7967 31.6926 20.2703C31.8728 20.9074 32.0431 21.5444 32.2233 22.1814C32.2483 22.274 32.3034 22.3665 32.3635 22.4373C32.6789 22.7912 33.0044 23.1451 33.3298 23.4881C33.445 23.6079 33.5001 23.7386 33.5001 23.9183C33.4951 25.1487 33.5001 26.3792 33.4951 27.6097C33.4951 27.9418 33.3999 28.0507 33.0945 28.0507C32.6289 28.0453 32.1582 28.0453 31.6776 28.0453ZM19.4005 29.3466C20.2317 29.3466 20.8976 28.617 20.8976 27.7132C20.8976 26.8094 20.2267 26.0852 19.3955 26.0852C18.5643 26.0852 17.8984 26.8148 17.8984 27.7186C17.9034 28.6224 18.5744 29.352 19.4005 29.3466ZM29.6047 26.0907C28.7735 26.0852 28.0976 26.8094 28.0976 27.7132C28.0926 28.617 28.7635 29.3466 29.5897 29.352C30.4208 29.3575 31.0917 28.6333 31.0967 27.7295C31.1018 26.8203 30.4358 26.0907 29.6047 26.0907ZM17.4828 26.7549C17.0172 26.7549 16.5616 26.7549 16.1159 26.7549C16.1159 26.9727 16.1159 27.1796 16.1159 27.3811C16.5265 27.3811 16.9271 27.3811 17.3126 27.3811C17.3677 27.1633 17.4228 26.9673 17.4828 26.7549ZM31.6876 27.3811C32.0831 27.3811 32.4887 27.3811 32.8842 27.3811C32.8842 27.1633 32.8842 26.9564 32.8842 26.7495C32.4236 26.7495 31.973 26.7495 31.5173 26.7495C31.5724 26.9618 31.6275 27.1687 31.6876 27.3811ZM29.2942 18.2558C29.2792 18.0271 29.3693 17.7821 29.134 17.6624C29.0489 17.6188 28.9037 17.6297 28.8236 17.6787C28.6233 17.8148 28.7034 18.0435 28.7034 18.2558C28.9037 18.2558 29.089 18.2558 29.2942 18.2558Z" fill="white"/>
<path d="M22.099 20.5426C22.3944 20.5426 22.6698 20.5426 22.9452 20.5426C23.1905 20.5426 23.2957 20.6624 23.3007 20.9292C23.3007 21.3212 23.3007 21.7187 23.3007 22.1107C23.3007 22.3775 23.1905 22.4973 22.9452 22.4973C22.6698 22.5027 22.3994 22.4973 22.104 22.4973C22.104 22.8022 22.104 23.0907 22.104 23.3793C22.104 23.6842 22.0039 23.7985 21.7235 23.7985C21.378 23.7985 21.0375 23.7985 20.6921 23.7985C20.4067 23.7985 20.3065 23.6896 20.3065 23.3847C20.3065 23.0962 20.3065 22.8022 20.3065 22.4918C20.0211 22.4918 19.7558 22.4918 19.4904 22.4918C19.21 22.4918 19.1099 22.3775 19.1099 22.0726C19.1099 21.6914 19.1099 21.3103 19.1099 20.9292C19.1099 20.6515 19.215 20.5372 19.4754 20.5372C19.7457 20.5372 20.0111 20.5372 20.3065 20.5372C20.3065 20.2432 20.3065 19.9492 20.3065 19.6606C20.3065 19.3394 20.4017 19.2305 20.6971 19.2305C21.0325 19.2305 21.373 19.2305 21.7085 19.2305C22.0139 19.2305 22.104 19.3339 22.104 19.6715C22.099 19.9601 22.099 20.2377 22.099 20.5426ZM21.4982 23.1452C21.4982 22.8403 21.4982 22.5408 21.4982 22.2468C21.4982 21.9691 21.6083 21.8548 21.8637 21.8548C22.1341 21.8548 22.4094 21.8548 22.6848 21.8548C22.6848 21.6261 22.6848 21.4192 22.6848 21.2014C22.4094 21.2014 22.1491 21.2014 21.8887 21.2014C21.5983 21.2014 21.4982 21.0925 21.4982 20.7713C21.4982 20.4827 21.4982 20.1942 21.4982 19.9056C21.2879 19.9056 21.1026 19.9056 20.8973 19.9056C20.8973 20.2051 20.8973 20.4936 20.8973 20.7822C20.8973 21.0871 20.7922 21.196 20.5118 21.196C20.2464 21.196 19.9811 21.196 19.7107 21.196C19.7107 21.4247 19.7107 21.6316 19.7107 21.8493C19.9861 21.8493 20.2464 21.8493 20.5068 21.8493C20.7972 21.8493 20.8973 21.9582 20.8973 22.2795C20.8973 22.568 20.8973 22.8566 20.8973 23.1452C21.1126 23.1452 21.2979 23.1452 21.4982 23.1452Z" fill="white"/>
<path d="M29.259 22.824C28.7984 22.824 28.3327 22.824 27.8721 22.824C27.6017 22.824 27.4966 22.7096 27.4966 22.4156C27.4966 21.5935 27.4966 20.7713 27.4966 19.9492C27.4966 19.6824 27.6017 19.5626 27.8471 19.5626C28.553 19.5626 29.259 19.5626 29.965 19.5626C30.1553 19.5626 30.2704 19.6497 30.3205 19.8457C30.5508 20.6788 30.7811 21.5064 31.0065 22.3394C31.0916 22.6443 30.9564 22.824 30.661 22.824C30.1953 22.8294 29.7297 22.824 29.259 22.824ZM30.3155 22.1652C30.3155 22.1379 30.3205 22.1162 30.3155 22.0944C30.1553 21.5064 29.9951 20.9129 29.8248 20.3249C29.8098 20.2759 29.7197 20.2214 29.6646 20.2214C29.224 20.2105 28.7784 20.216 28.3377 20.216C28.2626 20.216 28.1825 20.216 28.1074 20.216C28.1074 20.8857 28.1074 21.5173 28.1074 22.1652C28.8485 22.1652 29.5845 22.1652 30.3155 22.1652Z" fill="white"/>
<path d="M28.6985 15.6533C28.6985 15.539 28.6935 15.4246 28.6985 15.3049C28.7135 15.1143 28.8337 14.9945 29.0089 14.9945C29.1742 15 29.2843 15.1143 29.2943 15.3049C29.3044 15.5335 29.3044 15.7676 29.2943 15.9963C29.2843 16.1923 29.1642 16.3067 28.9889 16.3012C28.8237 16.2958 28.7135 16.1814 28.7035 15.9909C28.6935 15.8874 28.6985 15.7676 28.6985 15.6533Z" fill="white"/>
<path d="M28.0926 23.4827C28.1977 23.4827 28.3029 23.4772 28.413 23.4827C28.5783 23.4936 28.6934 23.6297 28.6934 23.8039C28.6934 23.9781 28.5833 24.1197 28.418 24.1306C28.1977 24.1415 27.9824 24.1415 27.7621 24.1306C27.5919 24.1197 27.4918 23.9836 27.4968 23.8039C27.5018 23.6242 27.6019 23.499 27.7772 23.4881C27.8823 23.4718 27.9874 23.4827 28.0926 23.4827Z" fill="white"/>
<path d="M27.7319 16.666C27.6918 16.6333 27.5967 16.5843 27.5466 16.5027C27.4315 16.3176 27.3313 16.1215 27.2362 15.9255C27.1461 15.7459 27.1911 15.5825 27.3413 15.49C27.4915 15.3974 27.6568 15.4355 27.7469 15.5989C27.857 15.7949 27.9672 15.9909 28.0573 16.1978C28.1675 16.421 28.0173 16.666 27.7319 16.666Z" fill="white"/>
<path d="M30.8514 15.7677C30.6711 16.0726 30.5309 16.3503 30.3557 16.6007C30.2706 16.7205 30.1254 16.6824 30.0152 16.5898C29.895 16.4918 29.85 16.3612 29.9151 16.2142C30.0202 15.9909 30.1354 15.7731 30.2606 15.5662C30.3407 15.4247 30.4809 15.392 30.606 15.4737C30.7012 15.5336 30.7613 15.6534 30.8514 15.7677Z" fill="white"/>
<path d="M20.2965 27.7132C20.2965 28.2522 19.8859 28.6986 19.3903 28.6932C18.9046 28.6878 18.499 28.2467 18.499 27.7186C18.499 27.1796 18.9096 26.7331 19.4053 26.7386C19.896 26.744 20.2965 27.185 20.2965 27.7132ZM19.6957 27.7132C19.6957 27.5335 19.5655 27.3919 19.4003 27.3919C19.235 27.3919 19.1049 27.528 19.0999 27.7077C19.0949 27.8928 19.235 28.0453 19.4053 28.0398C19.5705 28.0398 19.7007 27.8928 19.6957 27.7132Z" fill="white"/>
<path d="M29.5996 26.7386C30.0903 26.7386 30.4959 27.1742 30.4959 27.7078C30.5009 28.2468 30.0903 28.6987 29.5946 28.6933C29.0989 28.6933 28.6934 28.2414 28.6934 27.7023C28.7034 27.1797 29.1089 26.7386 29.5996 26.7386ZM29.5946 27.392C29.4294 27.392 29.2992 27.5336 29.2992 27.7132C29.2992 27.8984 29.4394 28.0508 29.6096 28.0399C29.7749 28.0345 29.9 27.8875 29.895 27.7078C29.89 27.5281 29.7598 27.392 29.5946 27.392Z" fill="white"/>
</g>
<defs>
<filter id="filter0_d_734_3902" x="0.5" y="0" width="48" height="48" filterUnits="userSpaceOnUse" color-interpolation-filters="sRGB">
<feFlood flood-opacity="0" result="BackgroundImageFix"/>
<feColorMatrix in="SourceAlpha" type="matrix" values="0 0 0 0 0 0 0 0 0 0 0 0 0 0 0 0 0 0 127 0" result="hardAlpha"/>
<feOffset dy="1"/>
<feGaussianBlur stdDeviation="2"/>
<feComposite in2="hardAlpha" operator="out"/>
<feColorMatrix type="matrix" values="0 0 0 0 0 0 0 0 0 0 0 0 0 0 0 0 0 0 0.15 0"/>
<feBlend mode="normal" in2="BackgroundImageFix" result="effect1_dropShadow_734_3902"/>
<feBlend mode="normal" in="SourceGraphic" in2="effect1_dropShadow_734_3902" result="shape"/>
</filter>
<clipPath id="clip0_734_3902">
<rect width="18" height="15" fill="white" transform="translate(15.5 15)"/>
</clipPath>
</defs>
</svg>
