<svg width="20" height="20" viewBox="0 0 20 20" fill="none" xmlns="http://www.w3.org/2000/svg">
<g clip-path="url(#clip0_4262_11)">
<path d="M8.18996 4.16667L6.52329 5.83333H3.33329V15.8333H16.6666V5.83333H13.4766L11.81 4.16667H8.18996ZM7.49996 2.5H12.5L14.1666 4.16667H17.5C17.721 4.16667 17.9329 4.25446 18.0892 4.41074C18.2455 4.56702 18.3333 4.77899 18.3333 5V16.6667C18.3333 16.8877 18.2455 17.0996 18.0892 17.2559C17.9329 17.4122 17.721 17.5 17.5 17.5H2.49996C2.27895 17.5 2.06698 17.4122 1.9107 17.2559C1.75442 17.0996 1.66663 16.8877 1.66663 16.6667V5C1.66663 4.77899 1.75442 4.56702 1.9107 4.41074C2.06698 4.25446 2.27895 4.16667 2.49996 4.16667H5.83329L7.49996 2.5ZM9.99996 15C8.78438 15 7.61859 14.5171 6.75905 13.6576C5.89951 12.798 5.41663 11.6322 5.41663 10.4167C5.41663 9.20109 5.89951 8.0353 6.75905 7.17576C7.61859 6.31622 8.78438 5.83333 9.99996 5.83333C11.2155 5.83333 12.3813 6.31622 13.2409 7.17576C14.1004 8.0353 14.5833 9.20109 14.5833 10.4167C14.5833 11.6322 14.1004 12.798 13.2409 13.6576C12.3813 14.5171 11.2155 15 9.99996 15ZM9.99996 13.3333C10.7735 13.3333 11.5154 13.026 12.0624 12.4791C12.6093 11.9321 12.9166 11.1902 12.9166 10.4167C12.9166 9.64312 12.6093 8.90125 12.0624 8.35427C11.5154 7.80729 10.7735 7.5 9.99996 7.5C9.22641 7.5 8.48455 7.80729 7.93756 8.35427C7.39058 8.90125 7.08329 9.64312 7.08329 10.4167C7.08329 11.1902 7.39058 11.9321 7.93756 12.4791C8.48455 13.026 9.22641 13.3333 9.99996 13.3333Z" fill="#128041"/>
</g>
<defs>
<clipPath id="clip0_4262_11">
<rect width="20" height="20" fill="white"/>
</clipPath>
</defs>
</svg>
