<svg width="48" height="48" viewBox="0 0 48 48" fill="none" xmlns="http://www.w3.org/2000/svg">
<g filter="url(#filter0_d_734_3941)">
<circle cx="24" cy="23" r="20" fill="#F1634C"/>
</g>
<g clip-path="url(#clip0_734_3941)">
<path d="M25.9956 17.0169C26.4964 17.0169 26.9712 17.0169 27.4563 17.0169C27.4928 16.8501 27.4981 16.725 27.3103 16.6156C26.992 16.428 26.8512 16.0267 26.9399 15.6827C27.039 15.3075 27.3624 15.0208 27.7798 15.0104C28.5414 14.9947 29.3031 14.9947 30.0647 15.0104C30.4821 15.0156 30.816 15.3022 30.9099 15.6723C31.009 16.0527 30.8525 16.4228 30.5082 16.6469C30.3673 16.7355 30.3673 16.7355 30.4038 17.0221C30.529 17.0221 30.6542 17.0221 30.7847 17.0221C31.1029 17.0221 31.4211 17.0273 31.7393 17.0221C31.9115 17.0221 31.995 17.1003 31.995 17.2671C31.995 17.314 31.995 17.3557 31.995 17.4026C31.995 21.8065 31.995 26.2104 31.995 30.6091C31.995 30.9531 31.9584 30.9895 31.6194 30.9895C28.5362 30.9895 25.4478 30.9895 22.3647 30.9895C22.0256 30.9895 21.9943 30.9583 21.9943 30.6247C21.9943 30.0827 21.9943 29.5459 21.9943 28.9726C21.9108 28.9726 21.8378 28.9726 21.7596 28.9726C19.9493 28.9726 18.1391 28.9726 16.3341 28.9726C16.0263 28.9726 15.9897 28.9309 15.9897 28.6234C16.0002 24.2039 16.0002 19.7843 16.0002 15.3596C16.0002 15.0469 16.0471 15.0052 16.3654 15.0052C19.4589 15.0052 22.5473 15.0052 25.6409 15.0052C25.9643 15.0052 26.0008 15.0417 26.0008 15.3596C25.9956 15.9068 25.9956 16.4488 25.9956 17.0169ZM25.5939 15.4221C22.5212 15.4221 19.4694 15.4221 16.4123 15.4221C16.4123 19.8104 16.4123 24.1882 16.4123 28.5713C19.4746 28.5713 22.5316 28.5713 25.5939 28.5713C25.5939 24.1882 25.5939 19.8104 25.5939 15.4221ZM31.5828 30.5882C31.5828 26.1895 31.5828 21.8117 31.5828 17.4338C31.1811 17.4338 30.7899 17.4338 30.3882 17.4338C30.3882 17.5276 30.3882 17.6162 30.3882 17.6996C30.3882 20.8006 30.3882 23.9068 30.3882 27.0078C30.3882 27.1433 30.383 27.2788 30.3673 27.4143C30.2786 28.1439 29.5639 28.712 28.8336 28.6443C28.025 28.5661 27.4772 27.9667 27.4772 27.1381C27.4772 23.9798 27.4772 20.8162 27.4772 17.6579C27.4772 17.585 27.4772 17.5068 27.4772 17.439C26.9659 17.439 26.4912 17.439 25.9956 17.439C25.9956 17.5381 25.9956 17.6215 25.9956 17.7048C25.9956 21.3531 25.9956 25.0013 26.0008 28.6495C26.0008 28.8371 25.9382 28.9465 25.7765 29.0351C24.9366 29.4938 24.1071 29.9628 23.2724 30.4267C23.1942 30.4736 23.1107 30.5153 23.0325 30.5622C23.0377 30.5726 23.0429 30.583 23.0481 30.5934C25.8861 30.5882 28.724 30.5882 31.5828 30.5882ZM29.9865 21.9472C29.9865 20.2117 29.9865 18.4762 29.9813 16.7355C29.9813 16.527 30.023 16.3915 30.2421 16.329C30.4351 16.2716 30.5238 16.1101 30.5395 15.912C30.5551 15.6254 30.3204 15.4117 29.9708 15.4065C29.2822 15.4013 28.5936 15.4065 27.8998 15.4065C27.8267 15.4065 27.7537 15.4117 27.6859 15.4325C27.4824 15.4847 27.3311 15.6671 27.3207 15.8651C27.3103 16.0632 27.4146 16.2716 27.6128 16.329C27.8476 16.3967 27.8789 16.5426 27.8789 16.7511C27.8737 20.17 27.8737 23.5941 27.8737 27.013C27.8737 27.086 27.8737 27.1537 27.8737 27.2267C27.9154 27.9511 28.6145 28.4254 29.2926 28.1856C29.7256 28.0293 29.9865 27.6488 29.9865 27.1381C29.9865 25.4078 29.9865 23.6775 29.9865 21.9472ZM24.9522 29.0247C24.947 29.0143 24.9418 29.0039 24.9366 28.9934C24.0967 28.9934 23.2516 28.9934 22.4117 28.9934C22.4117 29.4729 22.4117 29.942 22.4117 30.4371C23.2724 29.9576 24.1123 29.4938 24.9522 29.0247Z" fill="white"/>
<path d="M19.8921 23.1095C19.5113 23.1095 19.1617 23.1095 18.807 23.1095C18.5409 23.1095 18.4888 23.0521 18.4888 22.7863C18.4888 22.2547 18.4888 21.7179 18.4888 21.1863C18.4888 20.9362 18.5357 20.8893 18.7809 20.8841C19.1409 20.8841 19.4956 20.8841 19.8869 20.8841C19.8869 20.7902 19.8869 20.7121 19.8869 20.6287C19.8869 20.3316 19.8869 20.0293 19.8869 19.7323C19.8869 19.5863 19.9443 19.4873 20.1008 19.4873C20.7007 19.4821 21.2954 19.4821 21.8954 19.4873C22.0623 19.4873 22.1092 19.6072 22.1092 19.7531C22.1092 20.0502 22.1092 20.3525 22.1092 20.6495C22.1092 20.7173 22.1092 20.7902 22.1092 20.8841C22.4796 20.8841 22.8292 20.8841 23.1787 20.8841C23.4656 20.8841 23.5021 20.9205 23.5021 21.2124C23.5021 21.7336 23.5021 22.2547 23.5021 22.7707C23.5021 23.0573 23.4552 23.1042 23.1787 23.1042C22.8344 23.1042 22.4901 23.1042 22.1145 23.1042C22.1145 23.3857 22.1145 23.6567 22.1145 23.9225C22.1197 24.527 22.1249 24.4958 21.5406 24.4958C21.0972 24.4958 20.6538 24.4958 20.2155 24.4958C19.9338 24.4958 19.8973 24.4541 19.8973 24.1831C19.8921 23.8391 19.8921 23.4847 19.8921 23.1095ZM23.0952 22.7082C23.0952 22.2235 23.0952 21.7596 23.0952 21.2854C22.7092 21.2854 22.3388 21.2854 21.9684 21.2854C21.7962 21.2854 21.7128 21.2072 21.7128 21.0404C21.7128 20.8997 21.7128 20.7538 21.7128 20.613C21.7128 20.3785 21.7128 20.1388 21.7128 19.9042C21.2224 19.9042 20.7633 19.9042 20.2938 19.9042C20.2938 20.2691 20.2938 20.6183 20.2938 20.9674C20.2938 21.2332 20.2416 21.2906 19.9808 21.2906C19.626 21.2906 19.2713 21.2906 18.9061 21.2906C18.9061 21.77 18.9061 22.2287 18.9061 22.7134C19.2661 22.7134 19.6156 22.7134 19.9651 22.7134C20.2521 22.7134 20.2938 22.7603 20.299 23.0365C20.299 23.3857 20.299 23.7349 20.299 24.0893C20.7842 24.0893 21.2433 24.0893 21.718 24.0893C21.718 23.7349 21.718 23.4013 21.718 23.0626C21.718 22.7551 21.7597 22.7134 22.0675 22.7134C22.4014 22.7029 22.7457 22.7082 23.0952 22.7082Z" fill="white"/>
<path d="M29.4438 24.8189C29.4438 25.1576 29.4438 25.4964 29.4438 25.8352C29.4438 25.9707 29.4073 26.0905 29.2456 26.0853C29.0839 26.0853 29.0474 25.9707 29.0474 25.83C29.0474 25.1472 29.0474 24.4645 29.0474 23.7817C29.0474 23.641 29.0943 23.5264 29.2508 23.5264C29.4073 23.5264 29.4491 23.641 29.4491 23.7817C29.4386 24.1309 29.4438 24.4749 29.4438 24.8189Z" fill="white"/>
<path d="M29.4389 22.2234C29.4389 22.3485 29.4597 22.4736 29.4284 22.5935C29.4076 22.6664 29.3084 22.7811 29.2563 22.7759C29.178 22.7654 29.058 22.6716 29.0528 22.6039C29.0267 22.3537 29.0319 22.0983 29.0528 21.8482C29.058 21.7804 29.1676 21.6918 29.2406 21.6762C29.3606 21.6501 29.4336 21.7387 29.4336 21.8638C29.4441 21.9785 29.4389 22.1036 29.4389 22.2234Z" fill="white"/>
</g>
<defs>
<filter id="filter0_d_734_3941" x="0" y="0" width="48" height="48" filterUnits="userSpaceOnUse" color-interpolation-filters="sRGB">
<feFlood flood-opacity="0" result="BackgroundImageFix"/>
<feColorMatrix in="SourceAlpha" type="matrix" values="0 0 0 0 0 0 0 0 0 0 0 0 0 0 0 0 0 0 127 0" result="hardAlpha"/>
<feOffset dy="1"/>
<feGaussianBlur stdDeviation="2"/>
<feComposite in2="hardAlpha" operator="out"/>
<feColorMatrix type="matrix" values="0 0 0 0 0 0 0 0 0 0 0 0 0 0 0 0 0 0 0.15 0"/>
<feBlend mode="normal" in2="BackgroundImageFix" result="effect1_dropShadow_734_3941"/>
<feBlend mode="normal" in="SourceGraphic" in2="effect1_dropShadow_734_3941" result="shape"/>
</filter>
<clipPath id="clip0_734_3941">
<rect width="16" height="16" fill="white" transform="translate(16 15)"/>
</clipPath>
</defs>
</svg>
