<svg width="49" height="48" viewBox="0 0 49 48" fill="none" xmlns="http://www.w3.org/2000/svg">
<g filter="url(#filter0_d_734_3877)">
<circle cx="24.5" cy="23" r="20" fill="#F1634C"/>
</g>
<g clip-path="url(#clip0_734_3877)">
<path d="M32.5 25.0759C32.4248 25.323 32.3789 25.5841 32.2704 25.8126C31.8696 26.6705 30.9805 27.0948 30.1498 26.843C29.3192 26.5913 28.7515 25.7473 28.7681 24.7868C28.7848 23.8217 29.3776 23.0104 30.225 22.8005C30.2667 22.7912 30.3043 22.7772 30.346 22.7679C30.5297 21.3365 29.8201 20.3247 28.8934 20.1382C28.2046 20.0029 27.4741 20.4366 27.1235 21.2059C26.9732 21.537 26.9022 21.8913 26.9064 22.2643C26.9106 24.148 26.9064 26.0317 26.9064 27.9201C26.9064 28.9832 26.6226 29.9297 26.0048 30.7457C24.7275 32.4289 22.4107 32.4242 21.1376 30.7364C20.5198 29.9157 20.2401 28.9692 20.2401 27.9108C20.2401 27.7942 20.2359 27.6777 20.2359 27.5611C20.2276 27.5378 20.2359 27.5518 20.2359 27.5611C20.0731 27.4772 19.9145 27.4259 19.7851 27.328C19.5388 27.1275 19.4679 26.8197 19.4512 26.498C19.4386 26.2416 19.4386 25.9851 19.447 25.7287C19.4512 25.6074 19.4136 25.5608 19.3092 25.5282C18.4577 25.2484 17.7564 24.7262 17.2221 23.9289C16.7504 23.2295 16.5125 22.4368 16.5083 21.5603C16.5083 21.3691 16.5083 21.1779 16.5083 20.9681C16.6836 20.9681 16.8548 20.9681 17.0384 20.9681C17.0384 20.8888 17.0384 20.8236 17.0384 20.763C17.0384 19.574 17.0468 18.3897 17.0343 17.2054C17.0259 16.422 17.4559 15.8112 18.0611 15.6527C18.1112 15.6387 18.1655 15.5781 18.1905 15.5221C18.3742 15.1025 18.7582 14.9113 19.1381 15.0419C19.5013 15.1678 19.7475 15.5734 19.7016 15.9744C19.6515 16.4453 19.3385 16.7811 18.9252 16.7857C18.6163 16.7904 18.37 16.6412 18.2156 16.3334C18.1613 16.2262 18.1112 16.2262 18.0319 16.2728C17.7481 16.4314 17.5769 16.6925 17.5727 17.0468C17.5644 18.3337 17.5686 19.6159 17.5686 20.9028C17.5686 20.9122 17.5769 20.9215 17.5894 20.9541C17.8399 20.9541 18.0945 20.9541 18.3784 20.9541C18.3116 21.8867 18.4619 22.7259 19.1339 23.3461C19.6056 23.7797 20.1566 23.9475 20.7619 23.9242C21.8055 23.8823 23.0828 22.9824 22.9075 20.9634C23.0786 20.9634 23.2456 20.9634 23.4209 20.9634C23.4251 20.8982 23.4334 20.8562 23.4334 20.8096C23.4293 19.5926 23.4251 18.3803 23.4167 17.1634C23.4167 16.6785 23.2205 16.3707 22.8449 16.2402C22.824 16.2728 22.7989 16.3101 22.7822 16.3474C22.5944 16.6971 22.2187 16.8603 21.8764 16.7438C21.5216 16.6225 21.2962 16.2682 21.3087 15.8485C21.3212 15.4615 21.5842 15.1118 21.9265 15.0326C22.2813 14.9486 22.6361 15.1351 22.8073 15.4942C22.8365 15.5548 22.8866 15.6294 22.9367 15.6434C23.4835 15.7879 23.9552 16.3521 23.951 17.1867C23.9469 18.371 23.9552 19.56 23.9594 20.7443C23.9594 20.8049 23.9594 20.8702 23.9594 20.9448C24.1389 20.9448 24.3017 20.9448 24.477 20.9448C24.5563 22.0172 24.381 23.001 23.8091 23.8729C23.2414 24.7355 22.4817 25.2811 21.555 25.5655C21.555 25.8546 21.5675 26.1436 21.5508 26.4234C21.5383 26.6146 21.4966 26.8151 21.4339 26.9969C21.3421 27.272 21.1501 27.4352 20.8871 27.4865C20.8162 27.5005 20.7619 27.5098 20.7619 27.617C20.7327 28.5029 20.8788 29.3376 21.3463 30.0836C22.5067 31.9347 24.8902 31.8227 25.9088 29.8691C26.226 29.2583 26.3638 28.6009 26.3638 27.9015C26.3638 26.0178 26.3596 24.134 26.3679 22.2457C26.3721 21.1873 26.7687 20.348 27.5994 19.8211C28.6304 19.1637 29.9119 19.588 30.5339 20.7583C30.7843 21.2246 30.8929 21.7328 30.897 22.2737C30.897 22.4322 30.897 22.5861 30.897 22.7306C31.1266 22.8332 31.3562 22.9124 31.5607 23.0383C32.0366 23.3367 32.3246 23.7937 32.4457 24.3905C32.4582 24.4558 32.4791 24.5257 32.4958 24.591C32.5 24.7495 32.5 24.9127 32.5 25.0759ZM17.0468 21.5556C17.0009 22.1711 17.2513 23.0337 17.6687 23.6025C18.6664 24.9547 19.9521 25.3836 21.4465 24.9733C22.6153 24.6563 23.4293 23.8356 23.83 22.5441C23.926 22.227 23.9719 21.896 23.9636 21.5603C23.7799 21.5603 23.6087 21.5603 23.4418 21.5603C23.3792 23.1969 22.3272 24.3718 20.8829 24.5117C20.1775 24.577 19.5138 24.3998 18.9336 23.9289C18.2198 23.3461 17.8649 22.5441 17.8274 21.5556C17.5644 21.5556 17.3098 21.5556 17.0468 21.5556ZM30.6299 26.3115C31.3604 26.3115 31.9615 25.6401 31.9656 24.8288C31.9656 24.0221 31.3604 23.3414 30.6341 23.3367C29.9077 23.3321 29.3066 24.0082 29.3025 24.8241C29.3025 25.6401 29.8952 26.3115 30.6299 26.3115ZM19.9563 25.7147C19.973 26.0131 19.9771 26.3255 20.0063 26.6332C20.0272 26.8384 20.1232 26.9083 20.3027 26.913C20.4446 26.9176 20.5824 26.913 20.7243 26.913C20.8537 26.913 20.9581 26.843 20.9748 26.7032C21.0123 26.3721 21.029 26.0317 21.0499 25.7147C20.8329 25.7147 20.6617 25.7147 20.4906 25.7147C20.3236 25.7147 20.1524 25.7147 19.9563 25.7147ZM19.159 15.8905C19.159 15.732 19.0504 15.6014 18.9085 15.5967C18.7624 15.5921 18.6372 15.7273 18.6372 15.8858C18.6372 16.0444 18.7499 16.1749 18.8918 16.1796C19.0421 16.1842 19.159 16.0583 19.159 15.8905ZM22.106 16.1796C22.2479 16.1749 22.3606 16.049 22.3648 15.8905C22.3648 15.7273 22.2396 15.5921 22.0977 15.5967C21.9557 15.6014 21.843 15.7273 21.843 15.8858C21.8389 16.0537 21.9557 16.1842 22.106 16.1796Z" fill="white"/>
<path d="M30.63 25.7148C30.1876 25.7148 29.8369 25.3231 29.8369 24.8289C29.8369 24.3393 30.1876 23.9383 30.6259 23.9336C31.06 23.9243 31.4357 24.3439 31.4315 24.8335C31.4273 25.3184 31.0683 25.7148 30.63 25.7148ZM30.8972 24.8335C30.9014 24.6796 30.7845 24.5444 30.6467 24.5351C30.5006 24.5258 30.3754 24.6563 30.3712 24.8195C30.367 24.9827 30.4756 25.1086 30.6175 25.1179C30.7678 25.1226 30.893 24.9967 30.8972 24.8335Z" fill="white"/>
</g>
<defs>
<filter id="filter0_d_734_3877" x="0.5" y="0" width="48" height="48" filterUnits="userSpaceOnUse" color-interpolation-filters="sRGB">
<feFlood flood-opacity="0" result="BackgroundImageFix"/>
<feColorMatrix in="SourceAlpha" type="matrix" values="0 0 0 0 0 0 0 0 0 0 0 0 0 0 0 0 0 0 127 0" result="hardAlpha"/>
<feOffset dy="1"/>
<feGaussianBlur stdDeviation="2"/>
<feComposite in2="hardAlpha" operator="out"/>
<feColorMatrix type="matrix" values="0 0 0 0 0 0 0 0 0 0 0 0 0 0 0 0 0 0 0.15 0"/>
<feBlend mode="normal" in2="BackgroundImageFix" result="effect1_dropShadow_734_3877"/>
<feBlend mode="normal" in="SourceGraphic" in2="effect1_dropShadow_734_3877" result="shape"/>
</filter>
<clipPath id="clip0_734_3877">
<rect width="16" height="17" fill="white" transform="translate(16.5 15)"/>
</clipPath>
</defs>
</svg>
