<svg width="24" height="24" viewBox="0 0 24 24" fill="none" xmlns="http://www.w3.org/2000/svg">
<path d="M9 7H6C5.46957 7 4.96086 7.21071 4.58579 7.58579C4.21071 7.96086 4 8.46957 4 9V18C4 18.5304 4.21071 19.0391 4.58579 19.4142C4.96086 19.7893 5.46957 20 6 20H15C15.5304 20 16.0391 19.7893 16.4142 19.4142C16.7893 19.0391 17 18.5304 17 18V15" stroke="white" stroke-linecap="round" stroke-linejoin="round"/>
<path d="M9 14.996H12L20.5 6.49595C20.697 6.29897 20.8532 6.06512 20.9598 5.80775C21.0665 5.55038 21.1213 5.27453 21.1213 4.99595C21.1213 4.71738 21.0665 4.44153 20.9598 4.18416C20.8532 3.92679 20.697 3.69294 20.5 3.49595C20.303 3.29897 20.0692 3.14272 19.8118 3.03611C19.5544 2.9295 19.2786 2.87463 19 2.87463C18.4374 2.87463 17.8978 3.09813 17.5 3.49595L9 11.996V14.996Z" stroke="white" stroke-linecap="round" stroke-linejoin="round"/>
<path d="M16 5L19 8" stroke="white" stroke-linecap="round" stroke-linejoin="round"/>
</svg>
