<svg width="49" height="48" viewBox="0 0 49 48" fill="none" xmlns="http://www.w3.org/2000/svg">
<g filter="url(#filter0_d_734_3953)">
<circle cx="24.5" cy="23" r="20" fill="#F1634C"/>
</g>
<g clip-path="url(#clip0_734_3953)">
<path d="M15.3153 27.1138C14.6909 26.8605 14.5 26.5578 14.5 25.8587C14.5 22.9743 14.5 20.0954 14.5 17.211C14.5 16.4294 14.9025 16 15.6353 16C20.6665 16 25.7029 16 30.7341 16C31.4772 16 31.8797 16.4294 31.8797 17.222C31.8797 18.0972 31.8797 18.967 31.8797 19.8642C32.1067 19.8972 32.3286 19.9303 32.5505 19.9578C33.1904 20.0349 33.5722 20.5798 33.4897 21.2624C33.3091 22.8092 33.1388 24.3615 32.9633 25.9083C32.8085 27.2844 32.6537 28.6661 32.4938 30.0422C32.4215 30.6752 31.921 31.0661 31.3275 30.989C28.8197 30.6642 26.3066 30.345 23.7987 30.0202C21.4096 29.7119 19.0255 29.3982 16.6363 29.0844C16.4919 29.0679 16.3422 29.0459 16.1977 29.0349C15.5837 28.9688 15.1915 28.4624 15.2431 27.8018C15.2586 27.5761 15.2895 27.3505 15.3153 27.1138ZM23.1847 16.4954C20.6613 16.4954 18.138 16.4954 15.6146 16.4954C15.1657 16.4954 14.9644 16.7156 14.9644 17.189C14.9644 20.1064 14.9644 23.0239 14.9644 25.9413C14.9644 26.0294 14.9696 26.1229 14.9902 26.2055C15.0676 26.5028 15.2689 26.6239 15.6611 26.6239C20.6768 26.6239 25.6926 26.6239 30.7083 26.6239C31.2347 26.6239 31.4204 26.4257 31.4204 25.8697C31.4204 23.0018 31.4204 20.1339 31.4204 17.2606C31.4204 16.6881 31.2398 16.4954 30.7031 16.4954C28.1953 16.4954 25.6926 16.4954 23.1847 16.4954ZM15.7849 27.1193C15.7539 27.389 15.7178 27.6257 15.7023 27.8624C15.6765 28.2422 15.8778 28.4954 16.2287 28.5394C16.8995 28.622 17.5703 28.7101 18.2412 28.7982C20.424 29.0844 22.6067 29.3706 24.7895 29.6514C26.9878 29.9376 29.1809 30.2183 31.3791 30.4991C31.7249 30.5431 31.9932 30.3339 32.0345 29.9651C32.1274 29.1615 32.2151 28.3523 32.308 27.5486C32.4679 26.1284 32.6279 24.7083 32.793 23.2881C32.8756 22.5725 32.9582 21.8569 33.0356 21.1413C33.0717 20.8165 32.9169 20.5468 32.6331 20.4807C32.3905 20.4202 32.1429 20.4037 31.8797 20.3651C31.8797 20.4752 31.8797 20.5578 31.8797 20.6349C31.8797 22.4183 31.8797 24.1963 31.8797 25.9798C31.8797 26.3486 31.761 26.6514 31.4927 26.8826C31.2708 27.0752 31.0076 27.1193 30.7289 27.1193C28.4946 27.1193 26.2602 27.1193 24.031 27.1193C23.9536 27.1193 23.871 27.1193 23.7471 27.1193C23.8039 27.1578 23.8142 27.1688 23.8246 27.1688C25.3107 27.3505 26.802 27.5321 28.2882 27.7193C29.0106 27.8073 29.733 27.9009 30.4555 27.989C30.6154 28.011 30.7083 28.1046 30.6825 28.2807C30.6567 28.4514 30.538 28.4954 30.3935 28.4789C30.0684 28.4404 29.7433 28.4018 29.4182 28.3633C28.0198 28.1927 26.6214 28.0165 25.223 27.8459C23.8194 27.6697 22.4106 27.4991 21.0071 27.3229C20.1195 27.2128 19.2319 27.0917 18.3341 27.1193C17.56 27.1413 16.7911 27.1248 16.0171 27.1248C15.9449 27.1193 15.8726 27.1193 15.7849 27.1193Z" fill="white"/>
<path d="M23.2312 24.5817C21.0278 24.5817 18.8295 24.5817 16.6261 24.5817C16.5641 24.5817 16.4971 24.5817 16.4351 24.5817C16.2958 24.5707 16.2029 24.4771 16.2236 24.345C16.2391 24.2514 16.3371 24.1688 16.4145 24.1028C16.4506 24.0698 16.528 24.0918 16.5848 24.0918C21.0278 24.0918 25.4656 24.0918 29.9085 24.0918C29.9704 24.0918 30.0582 24.0753 30.0943 24.1083C30.1665 24.1799 30.2543 24.2789 30.2543 24.367C30.2543 24.4386 30.1407 24.5266 30.0633 24.5762C30.0169 24.6092 29.9395 24.5872 29.8724 24.5872C27.6587 24.5872 25.4449 24.5817 23.2312 24.5817Z" fill="white"/>
<path d="M23.2416 22.2532C25.4347 22.2532 27.6329 22.2532 29.826 22.2532C29.8776 22.2532 29.9292 22.2532 29.9808 22.2532C30.1769 22.2587 30.275 22.3412 30.2646 22.5064C30.2543 22.6935 30.1356 22.7431 29.986 22.7486C29.9395 22.7486 29.8983 22.7486 29.8518 22.7486C25.445 22.7486 21.033 22.7486 16.6261 22.7486C16.5436 22.7486 16.4404 22.7651 16.3836 22.7211C16.3114 22.6715 16.2236 22.5614 16.2236 22.4788C16.2288 22.4018 16.332 22.3137 16.4094 22.2642C16.461 22.2311 16.5487 22.2532 16.6158 22.2532C18.8244 22.2532 21.033 22.2532 23.2416 22.2532Z" fill="white"/>
<path d="M17.7097 18.5871C17.7097 18.2734 17.7097 17.9926 17.7097 17.7119C17.7097 17.4256 17.818 17.3156 18.0864 17.3156C18.267 17.3156 18.4476 17.3101 18.6282 17.3156C18.8759 17.3211 18.9791 17.4312 18.9842 17.6954C18.9894 17.9816 18.9842 18.2734 18.9842 18.5871C19.2577 18.5871 19.5209 18.5871 19.7789 18.5871C20.073 18.5871 20.1711 18.6917 20.1711 19.0055C20.1711 19.1816 20.1711 19.3633 20.1711 19.5394C20.1659 19.8256 20.0627 19.9412 19.7944 19.9467C19.5312 19.9523 19.268 19.9467 18.9791 19.9467C18.9791 20.2385 18.9791 20.5192 18.9791 20.8C18.9791 21.1027 18.881 21.2018 18.5972 21.2073C18.4114 21.2073 18.2257 21.2128 18.0399 21.2073C17.818 21.2018 17.7148 21.0862 17.7097 20.8495C17.7045 20.5633 17.7097 20.2715 17.7097 19.9523C17.4516 19.9523 17.204 19.9523 16.9563 19.9523C16.6157 19.9523 16.5228 19.8532 16.5228 19.4844C16.5228 19.2972 16.5176 19.1156 16.5228 18.9284C16.5331 18.6972 16.6363 18.5926 16.8531 18.5926C17.1317 18.5816 17.4052 18.5871 17.7097 18.5871ZM18.5198 20.6954C18.5198 20.4091 18.5198 20.1229 18.5198 19.8367C18.5198 19.5559 18.623 19.4513 18.881 19.4513C19.1494 19.4513 19.4177 19.4513 19.6912 19.4513C19.6912 19.3137 19.6912 19.2036 19.6912 19.077C19.4899 19.077 19.3042 19.077 19.1184 19.077C18.5456 19.077 18.5147 19.0495 18.5147 18.444C18.5147 18.2348 18.5147 18.0256 18.5147 17.8165C18.3856 17.8165 18.2824 17.8165 18.1896 17.8165C18.1792 17.8385 18.1741 17.855 18.1741 17.866C18.1741 18.1247 18.1689 18.389 18.1689 18.6477C18.1689 18.9724 18.0709 19.0715 17.7613 19.077C17.5084 19.077 17.2504 19.077 16.9975 19.077C16.9975 19.2146 16.9975 19.3192 16.9975 19.4513C17.271 19.4513 17.5342 19.4513 17.7974 19.4513C18.0709 19.4513 18.1689 19.5559 18.1741 19.8422C18.1741 20.1229 18.1741 20.4036 18.1741 20.6954C18.2928 20.6954 18.3908 20.6954 18.5198 20.6954Z" fill="white"/>
<path d="M30.1924 19.2697C30.1872 19.9358 29.6918 20.4587 29.0674 20.4532C28.4482 20.4477 27.9631 19.9137 27.9683 19.2477C27.9735 18.5981 28.474 18.0697 29.0829 18.0697C29.7021 18.0697 30.1975 18.6092 30.1924 19.2697ZM29.0829 19.9578C29.4493 19.9578 29.7279 19.655 29.7279 19.2642C29.7279 18.8789 29.439 18.5706 29.0829 18.5651C28.7269 18.5651 28.4327 18.8789 28.4379 19.2642C28.4379 19.655 28.7165 19.9578 29.0829 19.9578Z" fill="white"/>
<path d="M22.514 18.422C22.9578 18.422 23.4016 18.422 23.8454 18.422C24.0466 18.422 24.1653 18.5156 24.1498 18.6752C24.1344 18.8679 24.0105 18.9174 23.8505 18.9174C22.9475 18.9174 22.0496 18.9174 21.1466 18.9174C20.9505 18.9174 20.8266 18.8183 20.8421 18.6642C20.8576 18.477 20.9763 18.422 21.1414 18.422C21.6007 18.4275 22.0599 18.422 22.514 18.422Z" fill="white"/>
<path d="M22.4934 20.1725C22.0445 20.1725 21.5955 20.1725 21.1414 20.1725C20.9814 20.1725 20.8576 20.123 20.8421 19.9303C20.8266 19.7762 20.9505 19.6771 21.1517 19.6771C22.0496 19.6771 22.9527 19.6771 23.8505 19.6771C24.0105 19.6771 24.1344 19.7267 24.1498 19.9193C24.1602 20.079 24.0466 20.167 23.8454 20.1725C23.3964 20.1725 22.9475 20.1725 22.4934 20.1725Z" fill="white"/>
<path d="M15.4082 19.3743C15.4082 18.989 15.4082 18.6037 15.4082 18.2184C15.4082 18.0477 15.4546 17.9156 15.6353 17.8991C15.7797 17.8826 15.8726 18.0147 15.8726 18.2294C15.8726 19.011 15.8726 19.7927 15.8726 20.5798C15.8726 20.7505 15.8262 20.8826 15.6456 20.8991C15.5011 20.9156 15.4082 20.789 15.4082 20.5688C15.4082 20.1725 15.4082 19.7707 15.4082 19.3743Z" fill="white"/>
<path d="M15.8726 17.3927C15.8726 17.5689 15.7746 17.6845 15.6353 17.679C15.4959 17.6735 15.4082 17.5579 15.4082 17.3762C15.4082 17.1946 15.5011 17.09 15.6456 17.09C15.7901 17.101 15.8726 17.2111 15.8726 17.3927Z" fill="white"/>
</g>
<defs>
<filter id="filter0_d_734_3953" x="0.5" y="0" width="48" height="48" filterUnits="userSpaceOnUse" color-interpolation-filters="sRGB">
<feFlood flood-opacity="0" result="BackgroundImageFix"/>
<feColorMatrix in="SourceAlpha" type="matrix" values="0 0 0 0 0 0 0 0 0 0 0 0 0 0 0 0 0 0 127 0" result="hardAlpha"/>
<feOffset dy="1"/>
<feGaussianBlur stdDeviation="2"/>
<feComposite in2="hardAlpha" operator="out"/>
<feColorMatrix type="matrix" values="0 0 0 0 0 0 0 0 0 0 0 0 0 0 0 0 0 0 0.15 0"/>
<feBlend mode="normal" in2="BackgroundImageFix" result="effect1_dropShadow_734_3953"/>
<feBlend mode="normal" in="SourceGraphic" in2="effect1_dropShadow_734_3953" result="shape"/>
</filter>
<clipPath id="clip0_734_3953">
<rect width="19" height="15" fill="white" transform="translate(14.5 16)"/>
</clipPath>
</defs>
</svg>
