<svg width="41" height="40" viewBox="0 0 41 40" fill="none" xmlns="http://www.w3.org/2000/svg">
<path d="M2.16847 17.2416C2.10328 17.2286 2.09025 17.2286 2.07721 17.2286C0.903805 17.7242 0.499633 17.4503 0.499633 16.1722C0.499633 15.0505 0.512671 13.9289 0.499633 12.8073C0.486595 12.2856 0.682162 11.9335 1.13849 11.6466C7.37056 7.86436 13.6026 4.06912 19.8347 0.260841C20.3171 -0.0260841 20.7082 -0.0260841 21.1776 0.260841C24.3849 2.23019 27.6183 4.1865 30.8386 6.14281C30.969 6.22106 31.1124 6.29931 31.308 6.41669C31.321 6.2341 31.3341 6.10368 31.3341 5.97326C31.3341 4.32996 31.3341 2.68666 31.3341 1.04336C31.3341 0.299967 31.6339 0.0130421 32.364 0C33.3419 0 34.3197 0 35.2975 0C36.0277 0 36.3145 0.299967 36.3145 1.04336C36.3145 3.67786 36.3275 6.31236 36.3015 8.94685C36.3015 9.32507 36.4058 9.55983 36.7447 9.75546C37.8138 10.3684 38.8569 11.0466 39.9129 11.6726C40.3171 11.9204 40.4996 12.2465 40.4866 12.716C40.4736 13.942 40.4866 15.1549 40.4866 16.3808C40.4866 17.3851 39.9129 17.7242 39.0264 17.2546C38.9873 17.2286 38.9351 17.2286 38.8178 17.1764C38.8178 17.3981 38.8178 17.5807 38.8178 17.7633C38.8178 24.7408 38.8178 31.7183 38.8178 38.6958C38.8178 39.7522 38.5961 39.987 37.527 39.987C26.158 39.987 14.7891 39.987 3.4201 39.987C2.39012 39.987 2.15543 39.7522 2.15543 38.7219C2.15543 31.7444 2.15543 24.7669 2.15543 17.7894C2.16847 17.6198 2.16847 17.4242 2.16847 17.2416ZM37.1359 38.3045C37.1489 38.1219 37.162 37.9654 37.162 37.8089C37.162 30.7401 37.162 23.6583 37.175 16.5895C37.175 16.2634 37.0837 16.0678 36.7969 15.8983C31.4644 12.6638 26.158 9.42941 20.8386 6.18194C20.6039 6.03847 20.4344 6.01239 20.1867 6.16889C14.8803 9.41637 9.56091 12.6508 4.24148 15.8722C3.94162 16.0548 3.82427 16.2504 3.82427 16.6025C3.83731 23.6583 3.83731 30.7141 3.83731 37.7828C3.83731 37.9524 3.85035 38.1219 3.86339 38.3045C14.9716 38.3045 26.0407 38.3045 37.1359 38.3045ZM38.8308 15.194C38.8308 14.5158 38.8178 13.955 38.8308 13.3812C38.8438 13.0812 38.7395 12.9116 38.4788 12.7551C32.5987 9.19465 26.7317 5.60809 20.8647 2.03456C20.5909 1.86501 20.4084 1.85197 20.1215 2.03456C19.0133 2.73883 17.879 3.40398 16.7578 4.09521C12.0251 6.9775 7.2793 9.87284 2.53353 12.7682C2.39012 12.8595 2.19455 13.0029 2.19455 13.1203C2.15543 13.7724 2.18151 14.4376 2.18151 15.1679C2.40315 15.0375 2.54657 14.9723 2.67695 14.894C8.3484 11.4379 14.0329 7.99478 19.7043 4.51255C20.278 4.16042 20.7343 4.14737 21.308 4.49951C25.6626 7.17313 30.0433 9.83371 34.411 12.4943C35.8451 13.3812 37.2923 14.255 38.8308 15.194ZM34.6326 8.4643C34.6326 6.15585 34.6326 3.9387 34.6326 1.69547C34.085 1.69547 33.5635 1.69547 33.0029 1.69547C33.0029 3.57352 33.0029 5.4255 33.0029 7.26443C33.0029 7.35572 33.0681 7.49918 33.1333 7.53831C33.6026 7.85132 34.0981 8.13825 34.6326 8.4643Z" fill="#2ABFC4"/>
<path d="M20.5129 17.1764C21.3473 16.094 22.3512 15.3375 23.6159 14.9463C26.9275 13.929 30.3434 16.1592 30.8519 19.6414C31.2169 22.1846 30.3825 24.4278 28.9875 26.4754C26.9275 29.4882 24.1244 31.6792 20.9953 33.4921C20.7606 33.6225 20.3173 33.6616 20.0957 33.5312C16.7189 31.5749 13.6941 29.2012 11.6081 25.8103C10.5911 24.154 10.0175 22.3672 10.0827 20.3978C10.187 17.659 12.1165 15.2854 14.7371 14.8028C16.8102 14.4246 18.5833 15.0897 20.0305 16.6156C20.1739 16.7721 20.3173 16.9417 20.5129 17.1764ZM11.7254 20.9456C11.7645 22.7845 12.5989 24.5191 13.8115 26.0972C15.5716 28.4057 17.8141 30.1663 20.2652 31.6792C20.3956 31.7575 20.6824 31.7314 20.8128 31.6401C21.7906 30.975 22.7945 30.3228 23.7202 29.5925C25.5846 28.1187 27.2404 26.4494 28.3356 24.3105C29.0657 22.9019 29.4829 21.4151 29.1961 19.7979C28.6876 16.9417 25.7802 15.5071 23.29 16.8895C22.3512 17.3982 21.7254 18.1807 21.3212 19.1719C21.0605 19.8109 20.4607 20.0196 20.0044 19.6284C19.8349 19.4719 19.7176 19.2371 19.6263 19.0154C18.7789 17.0591 16.6798 15.9635 14.7371 16.4852C12.964 16.9678 11.7124 18.7415 11.7254 20.9456Z" fill="#2ABFC4"/>
<path d="M21.3344 25.7711C21.3344 26.2406 21.3344 26.6449 21.3344 27.0492C21.3344 27.8709 21.0475 28.2882 20.4869 28.2752C19.9393 28.2621 19.6655 27.8578 19.6655 27.0753C19.6655 26.6971 19.6655 26.3319 19.6525 25.9537C19.6525 25.9146 19.6264 25.8624 19.5873 25.7711C19.1049 25.7711 18.5964 25.7711 18.101 25.7711C17.5404 25.7581 17.2014 25.4581 17.1883 24.9755C17.1753 24.4799 17.5273 24.1278 18.101 24.1148C18.5964 24.1017 19.1049 24.1148 19.6786 24.1148C19.6786 23.7757 19.6786 23.4757 19.6786 23.1757C19.6786 22.0411 19.8872 21.6498 20.4999 21.6368C21.1258 21.6237 21.3474 22.028 21.3474 23.2018C21.3474 23.4888 21.3474 23.7757 21.3474 24.1148C21.8819 24.1148 22.3643 24.1148 22.8467 24.1148C23.4595 24.1278 23.8376 24.4539 23.8246 24.9625C23.8246 25.4842 23.4595 25.7711 22.8337 25.7842C22.3643 25.7842 21.895 25.7711 21.3344 25.7711Z" fill="#2ABFC4"/>
</svg>
