<svg width="49" height="48" viewBox="0 0 49 48" fill="none" xmlns="http://www.w3.org/2000/svg">
<g filter="url(#filter0_d_734_3981)">
<circle cx="24.5" cy="23" r="20" fill="#F1634C"/>
</g>
<g clip-path="url(#clip0_734_3981)">
<path d="M14.4998 32.3543C14.9071 32.3543 15.3195 32.3543 15.7476 32.3543C15.7476 29.4486 15.7476 26.5644 15.7476 23.6587C16.7969 23.6587 17.8201 23.6587 18.8695 23.6587C18.8695 21.1835 18.8695 18.7244 18.8695 16.2492C19.9188 16.2492 20.942 16.2492 21.9914 16.2492C21.9914 15.4959 21.9914 14.7533 21.9914 14C23.6672 14 25.3273 14 26.9979 14C26.9979 14.7372 26.9979 15.4744 26.9979 16.2331C28.042 16.2331 29.0757 16.2331 30.125 16.2331C30.125 18.7137 30.125 21.1728 30.125 23.648C31.1743 23.648 32.1976 23.648 33.2469 23.648C33.2469 26.5537 33.2469 29.4378 33.2469 32.3489C33.675 32.3489 34.0822 32.3489 34.4946 32.3489C34.4946 32.5695 34.4946 32.7686 34.4946 32.9946C27.828 32.9946 21.1613 32.9946 14.4946 32.9946C14.4998 32.7848 14.4998 32.5695 14.4998 32.3543ZM26.9979 16.8949C26.9979 17.6483 26.9979 18.3908 26.9979 19.128C25.3273 19.128 23.6724 19.128 22.0018 19.128C22.0018 18.3801 22.0018 17.6375 22.0018 16.8949C21.1561 16.8949 20.3364 16.8949 19.5116 16.8949C19.5116 22.0498 19.5116 27.1886 19.5116 32.3328C20.3417 32.3328 21.1665 32.3328 22.0122 32.3328C22.0122 31.149 22.0122 29.9813 22.0122 28.8083C23.6828 28.8083 25.3378 28.8083 27.0083 28.8083C27.0083 29.9867 27.0083 31.1597 27.0083 32.3274C27.8541 32.3274 28.6737 32.3274 29.4985 32.3274C29.4985 27.1725 29.4985 22.0337 29.4985 16.8842C28.6685 16.8949 27.8488 16.8949 26.9979 16.8949ZM16.3845 32.3435C17.225 32.3435 18.0394 32.3435 18.8642 32.3435C18.8642 29.6585 18.8642 26.9895 18.8642 24.3098C18.029 24.3098 17.2093 24.3098 16.3845 24.3098C16.3845 26.9949 16.3845 29.6638 16.3845 32.3435ZM32.6204 24.3098C31.7852 24.3098 30.9655 24.3098 30.1407 24.3098C30.1407 26.9949 30.1407 29.6692 30.1407 32.3435C30.9707 32.3435 31.7904 32.3435 32.6204 32.3435C32.6204 29.6638 32.6204 26.9949 32.6204 24.3098ZM22.6387 14.6403C22.6387 15.9371 22.6387 17.207 22.6387 18.4823C23.8864 18.4823 25.1289 18.4823 26.3662 18.4823C26.3662 17.1909 26.3662 15.9156 26.3662 14.6403C25.1185 14.6403 23.8812 14.6403 22.6387 14.6403ZM26.3662 32.3435C26.3662 31.375 26.3662 30.4172 26.3662 29.4701C25.1133 29.4701 23.876 29.4701 22.6387 29.4701C22.6387 30.4387 22.6387 31.3857 22.6387 32.3435C23.8812 32.3435 25.1185 32.3435 26.3662 32.3435Z" fill="white"/>
<path d="M21.3911 20.7638C22.2212 20.7638 23.0408 20.7638 23.8657 20.7638C23.8657 21.614 23.8657 22.4588 23.8657 23.3143C23.046 23.3143 22.2264 23.3143 21.3911 23.3143C21.3911 22.4749 21.3911 21.6247 21.3911 20.7638ZM23.2392 22.6794C23.2392 22.2435 23.2392 21.8292 23.2392 21.4149C22.8215 21.4149 22.4143 21.4149 22.0124 21.4149C22.0124 21.8454 22.0124 22.2597 22.0124 22.6794C22.4248 22.6794 22.8268 22.6794 23.2392 22.6794Z" fill="white"/>
<path d="M27.6242 20.7692C27.6242 21.6193 27.6242 22.4642 27.6242 23.3197C26.7941 23.3197 25.9745 23.3197 25.1392 23.3197C25.1392 22.4695 25.1392 21.6301 25.1392 20.7692C25.9588 20.7692 26.7784 20.7692 27.6242 20.7692ZM26.9925 22.6794C26.9925 22.2435 26.9925 21.8292 26.9925 21.4149C26.5748 21.4149 26.1676 21.4149 25.7656 21.4149C25.7656 21.8453 25.7656 22.2543 25.7656 22.6794C26.1728 22.6794 26.5748 22.6794 26.9925 22.6794Z" fill="white"/>
<path d="M21.3857 27.1832C21.3857 26.3277 21.3857 25.4883 21.3857 24.6327C22.2158 24.6327 23.0354 24.6327 23.8707 24.6327C23.8707 25.4829 23.8707 26.3277 23.8707 27.1832C23.0459 27.1832 22.2263 27.1832 21.3857 27.1832ZM22.0122 26.5375C22.4351 26.5375 22.8371 26.5375 23.239 26.5375C23.239 26.1071 23.239 25.6873 23.239 25.273C22.8214 25.273 22.4194 25.273 22.0122 25.273C22.0122 25.6981 22.0122 26.1124 22.0122 26.5375Z" fill="white"/>
<path d="M25.1392 27.1886C25.1392 26.3384 25.1392 25.4936 25.1392 24.6381C25.9588 24.6381 26.7836 24.6381 27.6189 24.6381C27.6189 25.4829 27.6189 26.333 27.6189 27.1886C26.7941 27.1886 25.9797 27.1886 25.1392 27.1886ZM25.7604 26.5375C26.1833 26.5375 26.5853 26.5375 26.9872 26.5375C26.9872 26.1071 26.9872 25.6873 26.9872 25.273C26.5696 25.273 26.1676 25.273 25.7604 25.273C25.7604 25.6981 25.7604 26.1124 25.7604 26.5375Z" fill="white"/>
<path d="M24.1893 17.8366C24.1893 17.5191 24.1893 17.2124 24.1893 16.8895C23.8761 16.8895 23.5837 16.8895 23.2705 16.8895C23.2705 16.6743 23.2705 16.4698 23.2705 16.2438C23.5681 16.2438 23.8709 16.2438 24.1893 16.2438C24.1893 15.9156 24.1893 15.6089 24.1893 15.286C24.3982 15.286 24.5965 15.286 24.8158 15.286C24.8158 15.5927 24.8158 15.9048 24.8158 16.2331C25.1343 16.2331 25.4318 16.2331 25.7451 16.2331C25.7451 16.4483 25.7451 16.6528 25.7451 16.8788C25.4475 16.8788 25.1447 16.8788 24.8262 16.8788C24.8262 17.207 24.8262 17.5137 24.8262 17.8366C24.6122 17.8366 24.4138 17.8366 24.1893 17.8366Z" fill="white"/>
</g>
<defs>
<filter id="filter0_d_734_3981" x="0.5" y="0" width="48" height="48" filterUnits="userSpaceOnUse" color-interpolation-filters="sRGB">
<feFlood flood-opacity="0" result="BackgroundImageFix"/>
<feColorMatrix in="SourceAlpha" type="matrix" values="0 0 0 0 0 0 0 0 0 0 0 0 0 0 0 0 0 0 127 0" result="hardAlpha"/>
<feOffset dy="1"/>
<feGaussianBlur stdDeviation="2"/>
<feComposite in2="hardAlpha" operator="out"/>
<feColorMatrix type="matrix" values="0 0 0 0 0 0 0 0 0 0 0 0 0 0 0 0 0 0 0.15 0"/>
<feBlend mode="normal" in2="BackgroundImageFix" result="effect1_dropShadow_734_3981"/>
<feBlend mode="normal" in="SourceGraphic" in2="effect1_dropShadow_734_3981" result="shape"/>
</filter>
<clipPath id="clip0_734_3981">
<rect width="20" height="19" fill="white" transform="translate(14.5 14)"/>
</clipPath>
</defs>
</svg>
