<svg width="41" height="40" viewBox="0 0 41 40" fill="none" xmlns="http://www.w3.org/2000/svg">
<path d="M40.1033 0C40.6042 0.396556 40.6251 0.688756 40.1764 1.14793C38.3919 2.93243 36.6074 4.72737 34.8124 6.50143C34.6455 6.66841 34.5515 6.81451 34.635 7.06496C34.7916 7.49283 34.6663 7.91025 34.468 8.30681C33.9463 9.31907 33.2784 10.227 32.4853 11.041C32.3913 11.1349 32.3079 11.2288 32.2139 11.3332C32.767 11.8863 33.0488 12.5333 32.934 13.3159C32.8505 13.8586 32.5688 14.276 32.1931 14.6517C27.5283 19.3269 22.8636 24.0021 18.1884 28.6668C18.0736 28.7816 17.9588 28.8756 17.7501 29.053C18.1362 29.4078 18.5014 29.7208 18.8354 30.0548C19.6181 30.8375 19.6598 31.9541 18.9397 32.6741C18.1988 33.4151 17.1031 33.3838 16.2995 32.5907C16.1952 32.4863 16.0908 32.3924 16.0073 32.2776C15.8195 32.0271 15.8195 31.7662 16.0282 31.5262C16.2578 31.2758 16.5291 31.2549 16.8004 31.4532C16.957 31.568 17.0822 31.7245 17.2283 31.8497C17.51 32.0897 17.8649 32.0793 18.1049 31.8393C18.3345 31.5993 18.3449 31.2653 18.1153 30.994C18.0214 30.8688 17.8962 30.7644 17.7918 30.6601C15.1203 27.9885 12.4487 25.317 9.7772 22.6454C9.73546 22.6037 9.70415 22.5724 9.66241 22.5307C9.27629 22.155 8.93191 22.1132 8.63971 22.395C8.35795 22.6872 8.39969 23.0316 8.77538 23.4073C10.7477 25.3796 12.7096 27.3519 14.682 29.3243C14.7655 29.4078 14.8489 29.4913 14.922 29.5747C15.1411 29.8461 15.1307 30.1591 14.9116 30.3887C14.6924 30.6079 14.3585 30.6288 14.108 30.3887C13.9306 30.2218 13.7949 30.013 13.6593 29.8461C11.8122 31.6932 10.0381 33.4673 8.22229 35.2831C8.78581 35.8257 9.38065 36.3892 9.94417 36.9736C10.4764 37.5163 10.5808 38.299 10.2572 38.9669C9.94417 39.6348 9.25542 40.0835 8.51449 39.9687C8.11793 39.9061 7.65876 39.7287 7.37699 39.4573C5.23768 37.3702 3.11923 35.2413 1.02166 33.1124C0.781639 32.862 0.656411 32.4967 0.479004 32.1837C0.479004 31.9541 0.479004 31.7141 0.479004 31.4845C0.583361 31.2653 0.666846 31.0253 0.80251 30.827C1.42865 29.9087 2.71224 29.7835 3.52623 30.5661C4.12106 31.1297 4.68459 31.7245 5.30029 32.3506C5.61336 32.0376 5.916 31.7349 6.21863 31.4323C6.33343 31.3175 6.43778 31.2027 6.55258 31.1088C6.8239 30.8792 7.12654 30.8896 7.35612 31.1192C7.57527 31.3384 7.59614 31.6828 7.36656 31.9332C7.06392 32.2672 6.72998 32.5802 6.40648 32.9037C6.32299 32.9872 6.24994 33.0707 6.18733 33.1333C6.58388 33.5403 6.98044 33.9369 7.33525 34.3021C9.09888 32.5385 10.873 30.7644 12.647 29.0008C12.2818 28.646 11.8852 28.2598 11.3947 27.7798C11.1965 28.0094 10.9982 28.2912 10.7582 28.5416C10.299 29.0217 9.82938 29.4913 9.34934 29.9504C9.06758 30.2322 8.7232 30.2426 8.48318 30.013C8.22229 29.7626 8.23272 29.4286 8.53536 29.1156C9.23455 28.4059 9.95461 27.7068 10.6851 26.9658C10.1529 26.4336 9.65198 25.9327 9.14063 25.4318C8.69189 24.983 8.23272 24.5343 7.79442 24.0751C7.09523 23.3342 7.10567 22.2489 7.81529 21.5497C8.50405 20.8609 9.62067 20.8505 10.3407 21.5497C10.706 21.9045 11.0504 22.2802 11.426 22.6663C11.5617 22.5307 11.6765 22.4367 11.7809 22.3324C15.1516 18.9616 18.5223 15.5909 21.8826 12.2202C22.3209 11.7819 22.6653 11.7193 22.947 12.0115C23.2288 12.3141 23.1662 12.5959 22.7175 13.0446C21.0791 14.683 19.4407 16.3214 17.8022 17.9598C17.6979 18.0642 17.604 18.1685 17.4474 18.3355C17.8336 18.7008 18.2197 19.0451 18.5849 19.4104C18.9084 19.7339 18.9502 20.0783 18.7102 20.3392C18.4388 20.6209 18.1153 20.5896 17.7605 20.2348C17.4057 19.88 17.0509 19.5043 16.6856 19.1286C16.383 19.4521 16.1221 19.7443 15.8821 20.0052C17.3953 21.5184 18.9502 23.0733 20.5155 24.6387C20.7347 24.3986 21.0164 24.1169 21.3191 23.7829C20.9121 23.3759 20.4738 22.9481 20.0459 22.5202C19.952 22.4263 19.8581 22.3428 19.785 22.228C19.6285 21.9567 19.6494 21.6958 19.8894 21.4871C20.1607 21.2471 20.4425 21.2784 20.6929 21.5184C21.0895 21.8941 21.4756 22.2906 21.8513 22.6768C21.9452 22.7811 22.0287 22.8959 22.1226 23.0211C22.4983 22.6246 22.8114 22.2802 23.2184 21.8523C22.9679 21.6227 22.6653 21.3619 22.3731 21.0905C22.1018 20.8296 21.8409 20.5583 21.5695 20.287C21.2252 19.9322 21.1834 19.6087 21.4652 19.3373C21.7156 19.0869 22.0704 19.1286 22.394 19.4521C22.9366 19.9948 23.4793 20.5374 24.0428 21.1114C24.3246 20.7879 24.5854 20.4957 24.8881 20.1304C24.575 19.8278 24.1889 19.473 23.8236 19.1077C23.4897 18.7738 23.4584 18.4503 23.7193 18.1894C23.9697 17.939 24.3246 17.9598 24.6481 18.2833C25.0133 18.6486 25.3577 19.0347 25.7229 19.4104C26.0464 19.0764 26.3178 18.7947 26.6204 18.4712C26.1925 18.0537 25.7438 17.605 25.2951 17.1563C25.1698 17.031 25.0342 16.9058 24.909 16.7702C24.6376 16.4675 24.6376 16.144 24.8881 15.904C25.1177 15.6848 25.462 15.6848 25.7229 15.9457C26.2239 16.4362 26.7248 16.9371 27.2152 17.438C27.2883 17.5111 27.3613 17.5841 27.4657 17.6676C27.737 17.365 27.9979 17.0624 28.3006 16.7284C27.977 16.4153 27.6014 16.0501 27.2361 15.6848C26.9022 15.3509 26.8709 15.0274 27.1422 14.7665C27.3926 14.5056 27.737 14.5369 28.0605 14.8604C28.4258 15.2257 28.791 15.6014 29.1667 15.977C29.4694 15.664 29.7302 15.3822 30.0433 15.0587C29.5528 14.5682 29.0311 14.0569 28.5197 13.5455C28.071 13.0968 28.0084 12.7733 28.311 12.4811C28.5928 12.2098 28.9163 12.2828 29.3441 12.7107C29.845 13.222 30.3459 13.7229 30.9199 14.2969C31.1286 14.0569 31.3269 13.8482 31.5043 13.629C31.8487 13.222 31.8591 12.7002 31.4939 12.3141C30.4086 11.2079 29.2919 10.0809 28.1545 8.97469C27.7475 8.57814 27.1944 8.61988 26.7561 9.04774C26.1925 9.5904 25.6499 10.1539 25.0968 10.707C25.0133 10.7905 24.9298 10.874 24.8463 10.947C24.575 11.1453 24.3037 11.1349 24.0741 10.8949C23.8445 10.6548 23.8236 10.3522 24.0428 10.1226C24.7629 9.38169 25.462 8.63032 26.2447 7.96243C26.9961 7.32585 28.1127 7.3989 28.8745 8.03548C28.9684 8.10853 29.0519 8.19202 29.125 8.26507C29.6781 7.8059 30.2103 7.32585 30.7843 6.89799C31.2121 6.58492 31.6817 6.32403 32.1409 6.0527C32.5792 5.80224 33.0384 5.73963 33.5288 5.86486C33.6541 5.89616 33.8628 5.80224 33.9671 5.69789C35.7308 3.94469 37.484 2.19149 39.2476 0.427863C39.3937 0.281764 39.5502 0.1461 39.7068 0.0104357C39.8424 0 39.9781 0 40.1033 0ZM2.26351 31.1505C2.07566 31.3175 1.85651 31.4323 1.74172 31.6201C1.58519 31.8706 1.68954 32.1211 1.88782 32.3298C3.9854 34.4273 6.07253 36.5249 8.18054 38.6225C8.48318 38.9251 8.85886 38.9147 9.10932 38.6434C9.34934 38.3929 9.3389 38.0172 9.05714 37.7355C6.97 35.6483 4.88286 33.5612 2.79573 31.474C2.66006 31.3488 2.48266 31.2862 2.26351 31.1505ZM14.1811 25.2335C14.5568 25.6196 14.9533 26.0162 15.2768 26.3397C16.1117 25.5048 16.9883 24.6387 17.8127 23.8142C17.4787 23.4594 17.1031 23.0629 16.7482 22.6872C15.8716 23.5534 14.995 24.4195 14.1811 25.2335ZM31.4 10.467C32.2348 9.67389 32.9131 8.78685 33.4349 7.76415C33.5497 7.53457 33.581 7.31542 33.3827 7.11714C33.174 6.90843 32.9444 6.91886 32.7044 7.05453C32.6209 7.09627 32.5374 7.13801 32.4644 7.17976C31.5461 7.6911 30.7216 8.32768 30.0224 9.07905C30.5025 9.56953 30.9408 10.0078 31.4 10.467ZM15.0055 20.9236C14.1185 21.8106 13.2419 22.6768 12.4383 23.4907C12.6992 23.7621 12.9914 24.0647 13.2314 24.3152C14.0871 23.4699 14.9533 22.6037 15.809 21.748C15.5481 21.4871 15.2559 21.1845 15.0055 20.9236ZM18.8041 24.7221C17.917 25.6092 17.0404 26.4858 16.2265 27.3102C16.4665 27.5815 16.7378 27.8737 16.9674 28.1137C17.844 27.2372 18.7102 26.371 19.5868 25.4944C19.3363 25.2544 19.065 24.983 18.8041 24.7221Z" fill="#2ABFC4"/>
</svg>
