<svg width="49" height="48" viewBox="0 0 49 48" fill="none" xmlns="http://www.w3.org/2000/svg">
<g filter="url(#filter0_d_734_3970)">
<circle cx="24.5" cy="23" r="20" fill="#F1634C"/>
</g>
<g clip-path="url(#clip0_734_3970)">
<path d="M34.5003 16.4884C34.4481 16.6867 34.4272 16.8949 34.3385 17.0783C34.2185 17.3261 34.0881 17.5938 33.8846 17.7772C32.9245 18.6694 31.9435 19.5369 30.9678 20.4093C30.6808 20.6621 30.2999 20.5828 30.2216 20.2557C30.1799 20.0772 30.2738 19.9483 30.399 19.8343C31.2861 19.0412 32.147 18.2233 33.0601 17.46C33.6289 16.9841 33.7332 16.414 33.6237 15.7696C33.5245 15.1847 33.248 14.922 32.6323 14.8427C32.3662 14.808 32.0844 14.8129 31.8183 14.8427C31.5 14.8724 31.2339 15.0162 31.0095 15.2492C29.872 16.4091 28.7241 17.5541 27.5866 18.7091C27.1953 19.1057 26.7361 19.2494 26.1778 19.1354C23.3863 18.5703 20.5947 18.0151 17.8032 17.455C17.2866 17.3509 16.7753 17.2468 16.2587 17.1427C15.9717 17.0832 15.8256 17.1477 15.7421 17.3658C15.6586 17.5789 15.7473 17.797 15.9717 17.916C16.2587 18.0647 16.5457 18.2085 16.8326 18.3522C18.805 19.3436 20.7721 20.335 22.7445 21.3264C23.6419 21.7775 23.8089 22.6945 23.1202 23.3984C21.7322 24.8161 20.3495 26.2387 18.9667 27.6564C18.6954 27.934 18.6015 27.9489 18.2362 27.7952C17.5266 27.5027 16.817 27.2053 16.1126 26.9129C16.0552 26.8881 15.9926 26.8633 15.93 26.8435C15.7108 26.779 15.4812 26.8732 15.3821 27.0566C15.2882 27.24 15.3403 27.4234 15.5334 27.5622C16.3683 28.1521 17.2136 28.7321 18.0432 29.3269C18.231 29.4607 18.4084 29.6293 18.5493 29.8077C19.1181 30.5265 19.6659 31.2502 20.2242 31.9739C20.4069 32.2069 20.6156 32.2713 20.8243 32.1573C21.033 32.0433 21.1061 31.8054 20.9913 31.5526C20.6625 30.8289 20.3234 30.1051 19.9894 29.3814C19.8799 29.1435 19.9112 28.9997 20.1042 28.8312C20.7773 28.2364 21.4504 27.6415 22.1235 27.0517C22.301 26.898 22.4836 26.8782 22.6558 26.9823C22.8175 27.0764 22.8958 27.2648 22.8227 27.4333C22.7862 27.5226 22.7132 27.6019 22.6401 27.6663C22.0922 28.1571 21.5391 28.6478 20.9808 29.1286C20.8713 29.2228 20.8556 29.2972 20.9182 29.426C21.2052 30.0357 21.4922 30.6454 21.7635 31.2552C22.0296 31.845 21.8209 32.4993 21.2783 32.8216C20.7095 33.1537 20.0103 33.0198 19.5981 32.4944C19.0346 31.7707 18.4815 31.037 17.9127 30.3133C17.8032 30.1696 17.6675 30.0407 17.5162 29.9366C16.6918 29.3418 15.8621 28.7717 15.0429 28.1918C14.6098 27.8894 14.4168 27.4829 14.5316 26.9773C14.6464 26.4568 15.0064 26.1544 15.5438 26.0404C15.8308 25.981 16.1126 26.0305 16.3787 26.1445C17.0101 26.4073 17.6414 26.665 18.2676 26.9376C18.4032 26.9971 18.4815 26.9773 18.5806 26.8732C19.8851 25.5249 21.2 24.1865 22.5097 22.8432C22.8227 22.526 22.7706 22.2236 22.3688 22.0203C20.1303 20.8902 17.8971 19.7649 15.6639 18.6447C15.0377 18.3274 14.7507 17.7623 14.9281 17.1675C15.1108 16.5528 15.6743 16.2108 16.3317 16.3397C18.5911 16.7858 20.8504 17.2418 23.1045 17.6929C24.1794 17.9061 25.2543 18.1192 26.3291 18.3423C26.6005 18.3968 26.804 18.3373 26.9918 18.144C28.1136 17.0039 29.2459 15.8787 30.3573 14.7336C30.7539 14.3272 31.2235 14.0942 31.7922 14.0297C31.8235 14.0248 31.8496 14.0099 31.8809 14C32.1157 14 32.3505 14 32.5853 14C32.6323 14.0099 32.6845 14.0297 32.7314 14.0347C33.6445 14.1586 34.1872 14.6097 34.4064 15.4425C34.4429 15.5763 34.469 15.7201 34.4951 15.8539C34.5003 16.067 34.5003 16.2752 34.5003 16.4884Z" fill="white"/>
<path d="M34.5002 27.5077C34.4272 27.8398 34.3802 28.1769 34.2811 28.4991C33.9471 29.5995 33.2636 30.4918 32.387 31.2601C31.6148 31.9392 30.7382 32.4845 29.7885 32.9157C29.5902 33.0049 29.4128 33.0099 29.2146 32.9157C27.7118 32.2168 26.3969 31.3047 25.4473 29.9713C24.8211 29.0889 24.4924 28.1124 24.4976 27.0417C24.5028 25.9809 24.4976 24.9152 24.4976 23.8544C24.4976 23.5867 24.5863 23.4727 24.8472 23.3885C26.3239 22.9126 27.8005 22.4367 29.2772 21.9757C29.4128 21.9311 29.5902 21.9361 29.7259 21.9757C31.1869 22.4318 32.6479 22.9027 34.0985 23.3785C34.2446 23.4281 34.3593 23.557 34.4898 23.6512C34.5002 24.935 34.5002 26.2189 34.5002 27.5077ZM33.6967 25.862C33.6862 25.862 33.681 25.862 33.6706 25.862C33.6706 25.3117 33.6654 24.7615 33.6758 24.2113C33.6758 24.0973 33.6341 24.0527 33.5245 24.018C32.2305 23.6066 30.9417 23.1902 29.6476 22.7837C29.5589 22.754 29.4441 22.7589 29.3502 22.7887C28.0666 23.1951 26.7883 23.6066 25.5099 24.013C25.3794 24.0527 25.3273 24.1072 25.3325 24.241C25.3377 25.173 25.3377 26.1098 25.3377 27.0417C25.3377 27.8894 25.5829 28.6775 26.063 29.3913C26.8874 30.6206 28.0718 31.4633 29.4128 32.1176C29.4702 32.1474 29.5798 32.1325 29.6424 32.1028C30.6129 31.6269 31.5 31.037 32.2461 30.2687C32.9505 29.54 33.4827 28.7172 33.608 27.7159C33.681 27.1012 33.6654 26.4816 33.6967 25.862Z" fill="white"/>
<path d="M29.1154 28.0431C29.178 27.9836 29.2302 27.939 29.2771 27.8944C30.0494 27.1608 30.8216 26.4271 31.5939 25.6935C31.646 25.6439 31.693 25.5944 31.7504 25.5547C31.9174 25.4407 32.1417 25.4556 32.2826 25.5944C32.4235 25.7282 32.4444 25.9414 32.3243 26.1049C32.2878 26.1545 32.2409 26.1991 32.1939 26.2437C31.286 27.1112 30.3729 27.9737 29.4598 28.8412C29.1571 29.1287 28.9327 29.1188 28.6666 28.8015C28.1709 28.2116 27.6752 27.6267 27.1796 27.0368C27.1587 27.0121 27.1378 26.9873 27.1169 26.9625C26.9343 26.7345 26.95 26.5064 27.1535 26.3577C27.3517 26.214 27.5918 26.2586 27.7692 26.4668C28.0927 26.8485 28.411 27.2302 28.7345 27.6118C28.8649 27.7506 28.9849 27.8894 29.1154 28.0431Z" fill="white"/>
</g>
<defs>
<filter id="filter0_d_734_3970" x="0.5" y="0" width="48" height="48" filterUnits="userSpaceOnUse" color-interpolation-filters="sRGB">
<feFlood flood-opacity="0" result="BackgroundImageFix"/>
<feColorMatrix in="SourceAlpha" type="matrix" values="0 0 0 0 0 0 0 0 0 0 0 0 0 0 0 0 0 0 127 0" result="hardAlpha"/>
<feOffset dy="1"/>
<feGaussianBlur stdDeviation="2"/>
<feComposite in2="hardAlpha" operator="out"/>
<feColorMatrix type="matrix" values="0 0 0 0 0 0 0 0 0 0 0 0 0 0 0 0 0 0 0.15 0"/>
<feBlend mode="normal" in2="BackgroundImageFix" result="effect1_dropShadow_734_3970"/>
<feBlend mode="normal" in="SourceGraphic" in2="effect1_dropShadow_734_3970" result="shape"/>
</filter>
<clipPath id="clip0_734_3970">
<rect width="20" height="19" fill="white" transform="translate(14.5 14)"/>
</clipPath>
</defs>
</svg>
