<svg width="49" height="48" viewBox="0 0 49 48" fill="none" xmlns="http://www.w3.org/2000/svg">
<g filter="url(#filter0_d_734_3995)">
<circle cx="24.5" cy="23" r="20" fill="#F1634C"/>
</g>
<g clip-path="url(#clip0_734_3995)">
<path d="M14.5 23.3342C15.267 21.4863 16.4723 20.0833 18.242 19.2277C18.3296 19.1878 18.4173 19.0909 18.4556 18.9939C18.6364 18.5776 18.7953 18.1555 18.9706 17.7391C19.2501 17.089 19.7212 16.6954 20.3896 16.5414C22.3072 16.0909 24.2467 15.9198 26.2081 16.0395C27.375 16.108 28.531 16.2734 29.6706 16.5585C30.3007 16.7125 30.7554 17.1175 31.0184 17.7334C31.1937 18.1498 31.3526 18.5718 31.5334 18.9882C31.5772 19.0852 31.6704 19.1821 31.7635 19.2334C33.1551 19.935 34.2673 20.9502 35.0179 22.3646C35.1329 22.5814 35.248 22.7981 35.363 23.0148C35.4836 23.243 35.5274 23.4825 35.4671 23.7334C35.3192 24.3665 35.1768 25.0053 35.0234 25.6384C34.9686 25.8665 34.8206 25.9749 34.6453 25.935C34.459 25.895 34.3769 25.7239 34.4316 25.4787C34.5686 24.8798 34.7111 24.2753 34.8535 23.6764C34.9193 23.3969 34.848 23.2487 34.5905 23.1346C32.9743 22.4331 31.2978 21.9654 29.5775 21.6688C27.5394 21.3209 25.4903 21.2068 23.4303 21.3266C20.6691 21.492 17.99 22.0281 15.4204 23.1289C15.1629 23.2372 15.0753 23.3855 15.1355 23.6422C15.5684 25.5015 16.0067 27.3551 16.4395 29.2087C16.445 29.2372 16.4614 29.2601 16.4778 29.2943C16.9106 29.1346 17.3325 28.9635 17.7653 28.8152C19.8582 28.0909 22.0113 27.703 24.2193 27.6232C24.4439 27.6175 24.5864 27.7315 24.5918 27.9255C24.6028 28.1137 24.4713 28.2392 24.2467 28.262C23.507 28.3304 22.7619 28.3646 22.0223 28.4616C20.2472 28.6897 18.5269 29.1574 16.8613 29.8418C16.8394 29.8532 16.8175 29.8703 16.7956 29.8874C17.1134 30.3095 17.6941 30.4521 18.2475 30.2981C19.2117 30.0357 20.1705 29.7506 21.1457 29.5623C23.2276 29.1631 25.3205 29.0661 27.4298 29.3399C28.9091 29.5338 30.3664 29.8133 31.7909 30.2981C32.3278 30.4806 32.9305 30.2924 33.2428 29.8418C32.4429 29.5795 31.6649 29.2943 30.8705 29.0604C29.2597 28.5928 27.6161 28.3361 25.9396 28.2734C25.8574 28.2677 25.7752 28.2677 25.6931 28.2506C25.5123 28.222 25.4027 28.0852 25.4136 27.9198C25.4246 27.7487 25.5506 27.6232 25.7314 27.6232C25.9999 27.6289 26.2628 27.6403 26.5313 27.6574C28.92 27.8228 31.2321 28.3475 33.4564 29.2715C33.4729 29.2772 33.4948 29.2829 33.5386 29.3C33.6482 28.8437 33.7523 28.3874 33.8619 27.9369C33.9331 27.6403 33.9988 27.3437 34.0701 27.0471C34.1248 26.8247 34.2782 26.7106 34.4536 26.762C34.6344 26.8133 34.7165 26.9787 34.6672 27.2011C34.4974 27.9426 34.3276 28.6783 34.1468 29.4141C33.8454 30.6175 32.7113 31.2734 31.5827 30.8912C29.7638 30.281 27.8955 29.9616 25.9944 29.8589C23.4468 29.722 20.954 30.0814 18.5214 30.8741C17.2887 31.2734 16.171 30.646 15.8532 29.3342C15.4149 27.5034 14.9876 25.6669 14.5548 23.8304C14.5438 23.7905 14.5274 23.7563 14.511 23.7163C14.5 23.5852 14.5 23.4597 14.5 23.3342ZM18.1105 21.5091C22.7181 20.3456 27.2929 20.3513 31.884 21.5034C31.8512 21.4122 31.8292 21.3551 31.8073 21.2924C31.3745 20.2258 30.9362 19.165 30.5089 18.0928C30.2952 17.5623 29.9336 17.2601 29.3912 17.1403C27.5504 16.7239 25.6931 16.5642 23.8139 16.6783C22.6852 16.7468 21.5731 16.9065 20.4718 17.1802C20.039 17.2886 19.7322 17.5566 19.5459 17.9787C19.4966 18.0928 19.4473 18.2125 19.398 18.3323C18.9706 19.376 18.5488 20.4198 18.1105 21.5091ZM18.0009 20.1232C17.0695 20.6365 16.3244 21.3323 15.7546 22.2449C15.793 22.2563 15.8039 22.2677 15.8149 22.262C16.3025 22.0909 16.7846 21.9255 17.2668 21.7544C17.2996 21.743 17.3489 21.7144 17.3599 21.6859C17.5791 21.1669 17.7872 20.6479 18.0009 20.1232ZM31.9991 20.1289C32.2073 20.6365 32.41 21.1498 32.6237 21.6517C32.6456 21.7087 32.7278 21.7544 32.7935 21.7772C33.2208 21.9312 33.6482 22.0795 34.0755 22.2277C34.1194 22.2449 34.1687 22.2506 34.2673 22.2791C33.6701 21.3323 32.925 20.6308 31.9991 20.1289Z" fill="white"/>
<path d="M24.0276 25.4335C23.7701 25.4335 23.5455 25.4335 23.3209 25.4335C22.9154 25.4278 22.7018 25.2053 22.6963 24.789C22.6963 24.5323 22.6908 24.2757 22.6963 24.019C22.7018 23.6654 22.9264 23.4316 23.2661 23.4259C23.5126 23.4202 23.7537 23.4259 24.0221 23.4259C24.0221 23.1863 24.0221 22.9696 24.0221 22.7529C24.0276 22.2567 24.2194 22.0513 24.6905 22.0456C24.9152 22.0456 25.1398 22.0399 25.3644 22.0456C25.7315 22.0513 25.9397 22.2681 25.9561 22.6616C25.9616 22.9068 25.9561 23.1578 25.9561 23.4259C26.2082 23.4259 26.4383 23.4259 26.6684 23.4259C27.0574 23.4316 27.2765 23.6597 27.282 24.0646C27.282 24.3213 27.2875 24.5779 27.282 24.8346C27.2765 25.1996 27.0574 25.4278 26.7012 25.4392C26.4657 25.4449 26.2246 25.4392 25.9507 25.4392C25.9507 25.673 25.9507 25.8897 25.9507 26.1065C25.9507 26.6198 25.7479 26.8251 25.2494 26.8308C25.0741 26.8308 24.8933 26.8308 24.7179 26.8308C24.2139 26.8308 24.0167 26.6255 24.0167 26.0894C24.0276 25.8783 24.0276 25.673 24.0276 25.4335ZM25.3535 26.1749C25.3535 25.9354 25.3535 25.7129 25.3535 25.4962C25.3589 25.0057 25.5562 24.7947 26.0274 24.7947C26.241 24.7947 26.4602 24.7947 26.6738 24.7947C26.6738 24.538 26.6738 24.3099 26.6738 24.0646C26.4383 24.0646 26.2136 24.0646 25.9945 24.0646C25.5726 24.0589 25.3644 23.8479 25.3589 23.4087C25.3535 23.1749 25.3589 22.9411 25.3589 22.6958C25.1179 22.6958 24.8933 22.6958 24.6522 22.6958C24.6522 22.9582 24.6577 23.2034 24.6522 23.4544C24.6412 23.8365 24.4276 24.0589 24.0605 24.0646C23.8249 24.0703 23.5838 24.0646 23.3428 24.0646C23.3428 24.3156 23.3428 24.5494 23.3428 24.7947C23.5564 24.7947 23.7646 24.7947 23.9673 24.7947C24.4604 24.7947 24.6577 25 24.6577 25.519C24.6577 25.7357 24.6577 25.9525 24.6577 26.1749C24.8933 26.1749 25.1069 26.1749 25.3535 26.1749Z" fill="white"/>
</g>
<defs>
<filter id="filter0_d_734_3995" x="0.5" y="0" width="48" height="48" filterUnits="userSpaceOnUse" color-interpolation-filters="sRGB">
<feFlood flood-opacity="0" result="BackgroundImageFix"/>
<feColorMatrix in="SourceAlpha" type="matrix" values="0 0 0 0 0 0 0 0 0 0 0 0 0 0 0 0 0 0 127 0" result="hardAlpha"/>
<feOffset dy="1"/>
<feGaussianBlur stdDeviation="2"/>
<feComposite in2="hardAlpha" operator="out"/>
<feColorMatrix type="matrix" values="0 0 0 0 0 0 0 0 0 0 0 0 0 0 0 0 0 0 0.15 0"/>
<feBlend mode="normal" in2="BackgroundImageFix" result="effect1_dropShadow_734_3995"/>
<feBlend mode="normal" in="SourceGraphic" in2="effect1_dropShadow_734_3995" result="shape"/>
</filter>
<clipPath id="clip0_734_3995">
<rect width="21" height="15" fill="white" transform="translate(14.5 16)"/>
</clipPath>
</defs>
</svg>
