<svg width="48" height="48" viewBox="0 0 48 48" fill="none" xmlns="http://www.w3.org/2000/svg">
<g filter="url(#filter0_d_734_3919)">
<circle cx="24" cy="23" r="20" fill="#F1634C"/>
</g>
<g clip-path="url(#clip0_734_3919)">
<path d="M25.8483 13C25.9556 13.0313 26.0629 13.0626 26.1702 13.0991C26.814 13.3339 27.2164 13.9079 27.2164 14.6175C27.2164 16.7934 27.2164 18.964 27.2164 21.1398C27.2164 22.1991 27.2164 23.2635 27.2164 24.3227C27.2164 24.3958 27.2164 24.4636 27.2164 24.5471C27.0018 24.5471 26.7979 24.5471 26.5726 24.5471C26.5726 24.4636 26.5726 24.3906 26.5726 24.3123C26.5726 21.1085 26.5726 17.9048 26.5726 14.701C26.5726 13.981 26.2024 13.6209 25.462 13.6209C25.1884 13.6209 24.9148 13.6209 24.6304 13.6209C24.6089 13.6835 24.5928 13.7357 24.5768 13.7931C24.3729 14.4453 23.7934 14.868 23.0906 14.8732C21.8244 14.8784 20.5583 14.8732 19.2921 14.8732C18.3639 14.8732 17.8489 14.5027 17.5806 13.6314C17.2104 13.6314 16.8349 13.6053 16.4647 13.6366C15.9925 13.6783 15.6492 14.0801 15.6438 14.5497C15.6385 15.0454 15.6438 15.5411 15.6438 16.0316C15.6438 21.1137 15.6438 26.2011 15.6438 31.2833C15.6438 32.0034 16.014 32.3686 16.749 32.3686C19.673 32.3686 22.6024 32.3686 25.5264 32.3686C26.0092 32.3686 26.3419 32.1599 26.4975 31.7425C26.417 31.7425 26.3472 31.7425 26.2829 31.7425C25.0221 31.7425 23.7666 31.7425 22.5058 31.7425C22.1893 31.7425 22.1034 31.6695 22.0605 31.3668C21.8727 29.9163 21.6849 28.4605 21.4972 27.0099C21.4864 26.9264 21.4703 26.8429 21.4542 26.7438C21.3362 26.7438 21.2235 26.749 21.1162 26.7438C20.9124 26.7334 20.789 26.6186 20.7836 26.4255C20.7782 26.0133 20.7782 25.6063 20.7836 25.1941C20.789 24.9854 20.9177 24.8706 21.1538 24.8706C21.6098 24.8654 22.0659 24.8706 22.5702 24.8706C22.5004 24.8028 22.4629 24.7558 22.42 24.7141C21.9317 24.2392 21.4435 23.7644 20.9553 23.2896C20.7192 23.06 20.7192 22.9243 20.9553 22.6948C21.2289 22.4286 21.5025 22.1573 21.7815 21.8964C21.9961 21.6877 22.1463 21.6877 22.3663 21.9016C23.3428 22.8513 24.3192 23.7957 25.2903 24.7506C25.3815 24.8393 25.4727 24.8758 25.6069 24.8758C26.4706 24.8706 27.3344 24.8758 28.1982 24.8654C28.2948 24.8654 28.4182 24.8132 28.4879 24.7454C29.459 23.8114 30.4247 22.8722 31.3905 21.933C31.6534 21.6773 31.7821 21.6773 32.045 21.933C32.3133 22.1938 32.5869 22.4547 32.8551 22.7208C33.059 22.9191 33.059 23.0704 32.8498 23.2739C32.3186 23.7957 31.7821 24.3123 31.2241 24.8549C31.31 24.8602 31.369 24.8706 31.4227 24.8706C31.825 24.8706 32.2274 24.8706 32.6298 24.8706C32.882 24.8706 33 24.9854 33.0054 25.2254C33.0107 25.6115 33.0107 25.9924 33.0054 26.3786C33.0054 26.6238 32.8873 26.7386 32.6405 26.7438C32.3025 26.7542 32.3079 26.7542 32.2435 27.083C31.9645 28.5283 31.6855 29.9736 31.4066 31.4138C31.3583 31.6695 31.2617 31.7425 30.9988 31.7425C29.8077 31.7425 28.6167 31.7425 27.4256 31.7425C27.3505 31.7425 27.2808 31.7425 27.2057 31.7425C27.1627 31.8573 27.1359 31.9616 27.0876 32.0608C26.7818 32.6765 26.2668 32.9896 25.5639 32.9896C23.4769 32.9948 21.3845 32.9896 19.2975 32.9896C18.4283 32.9896 17.5592 32.9896 16.6846 32.9896C15.6921 33 15 32.3269 15 31.3773C15 25.7942 15 20.2058 15 14.6227C15 13.814 15.4882 13.2191 16.293 13.0313C16.3198 13.0261 16.3413 13.0104 16.3681 13C19.5282 13 22.6882 13 25.8483 13ZM22.6775 31.1216C25.3976 31.1216 28.0909 31.1216 30.8057 31.1216C31.0846 29.671 31.3636 28.2257 31.648 26.7647C28.4611 26.7647 25.2957 26.7647 22.1142 26.7647C22.3019 28.2205 22.4897 29.6606 22.6775 31.1216ZM32.3562 25.5124C28.7025 25.5124 25.0703 25.5124 21.4435 25.5124C21.4435 25.7211 21.4435 25.9194 21.4435 26.1124C25.0864 26.1124 28.7079 26.1124 32.3455 26.1124C32.3508 26.0811 32.3562 26.055 32.3562 26.029C32.3562 25.8672 32.3562 25.695 32.3562 25.5124ZM18.2727 13.6314C18.4015 14.0175 18.7234 14.2471 19.1258 14.2523C19.6033 14.2575 20.0754 14.2523 20.5529 14.2523C21.3952 14.2523 22.2376 14.2523 23.0799 14.2523C23.5091 14.2523 23.8793 13.9757 23.9276 13.6314C22.0444 13.6314 20.1666 13.6314 18.2727 13.6314ZM21.5723 23.0078C22.2 23.6183 22.817 24.2184 23.4286 24.8132C23.4608 24.8445 23.5091 24.8706 23.5466 24.8706C23.8525 24.8758 24.1529 24.8758 24.4426 24.8758C23.6432 24.0984 22.8438 23.3209 22.0498 22.5487C21.9049 22.6843 21.744 22.8409 21.5723 23.0078ZM29.3195 24.8758C29.5985 24.8758 29.8668 24.8863 30.1297 24.8706C30.2262 24.8654 30.3389 24.8236 30.4033 24.761C30.9773 24.2131 31.5407 23.6601 32.1094 23.107C32.1469 23.0704 32.1738 23.0287 32.1791 23.0235C32.0075 22.8513 31.8519 22.6948 31.707 22.5434C30.9237 23.3157 30.1297 24.0879 29.3195 24.8758Z" fill="white"/>
<path d="M17.5698 18.6249C17.2533 18.6249 16.9689 18.6249 16.6846 18.6249C16.4056 18.6249 16.2875 18.5153 16.2875 18.2492C16.2875 17.8735 16.2822 17.4926 16.2875 17.1169C16.2875 16.8612 16.4056 16.7517 16.6685 16.7517C16.9635 16.7517 17.2533 16.7517 17.5698 16.7517C17.5698 16.4595 17.5698 16.1829 17.5698 15.9012C17.5698 15.609 17.6771 15.4994 17.9776 15.4994C18.3531 15.4994 18.7287 15.4994 19.1042 15.4994C19.3832 15.4994 19.4959 15.609 19.4959 15.8751C19.4959 16.1621 19.4959 16.4438 19.4959 16.7465C19.8017 16.7465 20.0861 16.7465 20.3704 16.7465C20.6708 16.7465 20.7782 16.856 20.7782 17.1482C20.7782 17.5135 20.7782 17.8787 20.7782 18.2388C20.7782 18.5049 20.6601 18.6144 20.3865 18.6197C20.0968 18.6197 19.8124 18.6197 19.4959 18.6197C19.4959 18.9066 19.4959 19.1832 19.4959 19.4597C19.4959 19.7676 19.3886 19.8719 19.0774 19.8719C18.7018 19.8719 18.3263 19.8719 17.9507 19.8719C17.6878 19.8719 17.5698 19.7572 17.5698 19.5015C17.5698 19.2197 17.5698 18.9379 17.5698 18.6249ZM16.9367 17.9987C17.2425 17.9987 17.5215 17.9987 17.8005 17.9987C18.101 17.9987 18.2136 18.1031 18.2136 18.3953C18.2136 18.6718 18.2136 18.9484 18.2136 19.2354C18.439 19.2354 18.6375 19.2354 18.8574 19.2354C18.8574 18.9536 18.8574 18.6823 18.8574 18.4057C18.8574 18.0979 18.9647 17.9987 19.2759 17.9935C19.5603 17.9935 19.8446 17.9935 20.1236 17.9935C20.1236 17.7692 20.1236 17.5709 20.1236 17.3674C19.8285 17.3674 19.5495 17.3674 19.2652 17.3674C18.9647 17.3674 18.8521 17.263 18.8521 16.9708C18.8521 16.6943 18.8521 16.4177 18.8521 16.1307C18.6267 16.1307 18.4282 16.1307 18.2083 16.1307C18.2083 16.4125 18.2083 16.6838 18.2083 16.9604C18.2083 17.2682 18.101 17.3726 17.7898 17.3726C17.5054 17.3726 17.2211 17.3726 16.9314 17.3726C16.9367 17.597 16.9367 17.7848 16.9367 17.9987Z" fill="white"/>
<path d="M20.4563 24.5627C20.4563 24.7819 20.4563 24.975 20.4563 25.1889C19.8661 25.1889 19.2867 25.1889 18.7019 25.1889C18.1225 25.1889 17.5377 25.1889 16.9421 25.1889C16.9421 26.9577 16.9421 28.7214 16.9421 30.4954C18.4283 30.4954 19.9091 30.4954 21.4113 30.4954C21.4113 30.7041 21.4113 30.9024 21.4113 31.1268C21.3469 31.1268 21.2772 31.1268 21.2074 31.1268C19.7213 31.1268 18.2351 31.1268 16.749 31.1268C16.3788 31.1268 16.2876 31.0381 16.2876 30.6781C16.2876 28.7892 16.2876 26.9003 16.2876 25.0167C16.2876 24.6567 16.3788 24.568 16.749 24.568C17.9132 24.568 19.0775 24.568 20.2417 24.568C20.3061 24.5627 20.3758 24.5627 20.4563 24.5627Z" fill="white"/>
<path d="M31.396 16.9916C31.3906 17.3621 31.2726 17.6595 31.0312 17.8943C30.5858 18.3326 30.1405 18.7761 29.6791 19.204C29.1641 19.6893 28.3808 19.6736 27.8926 19.1883C27.4097 18.7083 27.4097 17.9569 27.9033 17.4665C28.3379 17.0334 28.7724 16.6003 29.2231 16.1829C29.6309 15.8072 30.1137 15.7133 30.6341 15.9272C31.1331 16.1307 31.3584 16.522 31.396 16.9916ZM30.1352 17.8787C30.2961 17.7221 30.4624 17.5812 30.6019 17.4195C30.8165 17.1795 30.7897 16.8299 30.559 16.6107C30.3337 16.3968 29.985 16.3759 29.7435 16.5794C29.5718 16.7203 29.4216 16.8821 29.266 17.0334C29.5611 17.3204 29.8401 17.5917 30.1352 17.8787ZM28.7832 17.4873C28.6329 17.6386 28.4881 17.7795 28.3486 17.9256C28.1233 18.1656 28.1286 18.51 28.3486 18.7396C28.5632 18.964 28.9388 19.0005 29.1855 18.797C29.3572 18.6561 29.5075 18.4892 29.663 18.3378C29.368 18.0613 29.0836 17.7847 28.7832 17.4873Z" fill="white"/>
<path d="M26.2505 20.8737C26.2237 21.3433 25.993 21.7347 25.5101 21.9486C25.0273 22.1625 24.5552 22.1051 24.1635 21.7607C23.6592 21.312 23.1817 20.8372 22.7149 20.3519C22.2589 19.8771 22.2911 19.1414 22.7525 18.6874C23.2192 18.2283 24.0025 18.1917 24.5015 18.6353C24.9951 19.084 25.4672 19.5536 25.9394 20.0284C26.1486 20.2476 26.2452 20.5241 26.2505 20.8737ZM24.5069 19.5275C24.362 19.3866 24.2172 19.2249 24.0508 19.084C23.804 18.8753 23.4446 18.8961 23.2192 19.1153C22.9885 19.3397 22.9724 19.684 23.187 19.9241C23.3319 20.0858 23.4929 20.2319 23.6377 20.3728C23.9328 20.0858 24.2172 19.8093 24.5069 19.5275ZM24.1206 20.8424C24.2762 20.9937 24.421 21.1503 24.582 21.2859C24.8341 21.4999 25.2097 21.4738 25.435 21.2442C25.655 21.0198 25.6604 20.6702 25.4404 20.4302C25.3009 20.2737 25.1453 20.1276 25.0058 19.9867C24.7054 20.2789 24.421 20.5554 24.1206 20.8424Z" fill="white"/>
<path d="M20.4563 22.0739C20.4563 22.2773 20.4563 22.4704 20.4563 22.6739C19.0775 22.6739 17.6933 22.6739 16.2983 22.6739C16.2983 22.4756 16.2983 22.2826 16.2983 22.0739C17.6825 22.0739 19.0667 22.0739 20.4563 22.0739Z" fill="white"/>
<path d="M16.293 23.9262C16.293 23.7175 16.293 23.5244 16.293 23.3262C17.6772 23.3262 19.056 23.3262 20.4456 23.3262C20.4456 23.5192 20.4456 23.7175 20.4456 23.9262C19.0721 23.9262 17.6933 23.9262 16.293 23.9262Z" fill="white"/>
<path d="M17.5859 20.8215C18.5409 20.8215 19.4906 20.8215 20.4509 20.8215C20.4509 21.025 20.4509 21.2233 20.4509 21.432C19.4959 21.432 18.5517 21.432 17.5859 21.432C17.5859 21.2337 17.5859 21.0407 17.5859 20.8215Z" fill="white"/>
<path d="M25.2958 16.1255C24.9578 16.1255 24.652 16.1255 24.3354 16.1255C24.3354 15.9168 24.3354 15.7185 24.3354 15.5046C24.7754 15.5046 25.2046 15.4994 25.6392 15.5098C25.8055 15.515 25.9235 15.6246 25.9235 15.7864C25.9343 16.209 25.9289 16.6264 25.9289 17.0595C25.7143 17.0595 25.5158 17.0595 25.3012 17.0595C25.2958 16.7569 25.2958 16.4542 25.2958 16.1255Z" fill="white"/>
<path d="M23.6756 15.5098C23.6756 15.7185 23.6756 15.9063 23.6756 16.1098C23.4717 16.1098 23.2678 16.1098 23.0532 16.1098C23.0532 15.9168 23.0532 15.7237 23.0532 15.5098C23.2517 15.5098 23.4556 15.5098 23.6756 15.5098Z" fill="white"/>
<path d="M16.293 21.4268C16.293 21.2233 16.293 21.0303 16.293 20.8268C16.4968 20.8268 16.7007 20.8268 16.9153 20.8268C16.9153 21.0251 16.9153 21.2233 16.9153 21.4268C16.7114 21.4268 16.5129 21.4268 16.293 21.4268Z" fill="white"/>
<path d="M24.3191 27.323C24.5337 28.377 24.7483 29.3997 24.9629 30.4485C24.7537 30.4902 24.5552 30.5268 24.3352 30.5737C24.1206 29.5354 23.9114 28.5074 23.6914 27.4482C23.9006 27.4065 24.0938 27.3647 24.3191 27.323Z" fill="white"/>
<path d="M29.4588 30.5529C29.2334 30.5059 29.0403 30.4694 28.8311 30.4276C29.0457 29.3789 29.2603 28.3509 29.4749 27.3074C29.6895 27.3491 29.8934 27.3856 30.1026 27.4274C29.888 28.471 29.6734 29.4989 29.4588 30.5529Z" fill="white"/>
<path d="M26.5835 27.3856C26.7981 27.3856 26.9966 27.3856 27.2005 27.3856C27.2005 28.4188 27.2005 29.4467 27.2005 30.485C27.002 30.485 26.7981 30.485 26.5835 30.485C26.5835 29.4623 26.5835 28.4292 26.5835 27.3856Z" fill="white"/>
</g>
<defs>
<filter id="filter0_d_734_3919" x="0" y="0" width="48" height="48" filterUnits="userSpaceOnUse" color-interpolation-filters="sRGB">
<feFlood flood-opacity="0" result="BackgroundImageFix"/>
<feColorMatrix in="SourceAlpha" type="matrix" values="0 0 0 0 0 0 0 0 0 0 0 0 0 0 0 0 0 0 127 0" result="hardAlpha"/>
<feOffset dy="1"/>
<feGaussianBlur stdDeviation="2"/>
<feComposite in2="hardAlpha" operator="out"/>
<feColorMatrix type="matrix" values="0 0 0 0 0 0 0 0 0 0 0 0 0 0 0 0 0 0 0.15 0"/>
<feBlend mode="normal" in2="BackgroundImageFix" result="effect1_dropShadow_734_3919"/>
<feBlend mode="normal" in="SourceGraphic" in2="effect1_dropShadow_734_3919" result="shape"/>
</filter>
<clipPath id="clip0_734_3919">
<rect width="18" height="20" fill="white" transform="translate(15 13)"/>
</clipPath>
</defs>
</svg>
