<svg width="49" height="48" viewBox="0 0 49 48" fill="none" xmlns="http://www.w3.org/2000/svg">
<g filter="url(#filter0_d_734_3887)">
<circle cx="24.5" cy="23" r="20" fill="#F1634C"/>
</g>
<g clip-path="url(#clip0_734_3887)">
<path d="M13.5 24.1801C13.6589 23.917 13.7959 23.6429 13.9767 23.4017C14.5519 22.6343 15.056 21.823 15.4833 20.9624C15.5764 20.7706 15.5545 20.6445 15.4011 20.5129C15.3628 20.4801 15.3354 20.4472 15.297 20.4143C14.7108 19.8771 14.6122 19.5427 14.9464 18.8191C15.2422 18.1833 15.3902 17.5035 15.5929 16.8403C16.0093 15.4863 16.727 14.3242 17.9159 13.5129C18.7377 12.9538 19.6745 12.6743 20.6388 12.4824C20.9675 12.4166 21.2962 12.3563 21.625 12.2905C21.877 12.2412 22.0578 12.3454 22.1071 12.5537C22.1509 12.7565 22.0194 12.9209 21.7674 12.9812C21.0442 13.1457 20.3046 13.2718 19.5978 13.491C17.8118 14.0392 16.7872 15.3328 16.2668 17.0595C16.0421 17.805 15.8613 18.5615 15.5162 19.2631C15.4285 19.444 15.4614 19.6085 15.6148 19.74C15.6915 19.8058 15.7682 19.8771 15.8449 19.9429C16.2558 20.2992 16.3489 20.7651 16.1134 21.2475C15.6477 22.2122 15.0779 23.1112 14.4259 23.9554C14.1246 24.3391 14.1136 24.3007 14.5519 24.5858C14.6724 24.6625 14.8039 24.7228 14.93 24.7941C15.4997 25.123 15.6696 25.6382 15.3956 26.2412C15.3299 26.3837 15.2532 26.5208 15.1765 26.6743C15.2861 26.762 15.4011 26.8497 15.5107 26.9374C15.7737 27.1402 15.8011 27.2772 15.6203 27.5623C15.5929 27.6061 15.571 27.6555 15.5381 27.7212C16.2887 28.0611 16.3818 28.6531 16.1955 29.3712C16.1188 29.6562 16.1955 29.9413 16.3215 30.2099C16.4476 30.4785 16.7434 30.6046 17.0502 30.5169C18.1514 30.1825 19.2582 29.8481 20.3539 29.5028C20.9237 29.3219 21.4935 29.13 22.0468 28.8998C22.3591 28.7682 22.6385 28.5709 22.9179 28.3736C23.1042 28.2365 23.1919 28.0282 23.2138 27.787C23.2357 27.5349 23.3782 27.4088 23.5864 27.4252C23.7945 27.4417 23.9151 27.6061 23.9041 27.8473C23.8822 28.3187 23.6521 28.675 23.3069 28.9711C22.8522 29.3602 22.3098 29.5795 21.751 29.7659C21.4661 29.8646 21.1812 29.9632 20.8689 30.0674C21.4496 30.7306 21.8606 31.4652 22.0961 32.2874C24.7369 32.2874 27.3612 32.2874 29.991 32.2874C29.991 32.249 29.9965 32.2271 29.991 32.2107C29.4376 31.3336 29.1856 30.3524 28.9939 29.3493C28.7583 28.1214 28.7418 26.899 29.1473 25.704C29.2842 25.3039 29.4705 24.9256 29.6568 24.5419C29.7609 24.3281 29.9746 24.2733 30.1554 24.3775C30.3362 24.4816 30.38 24.6735 30.254 24.8927C29.5801 26.0987 29.3993 27.3869 29.6075 28.7408C29.7445 29.6453 29.9253 30.5443 30.3307 31.3775C30.4238 31.5693 30.5444 31.7447 30.6484 31.9256C30.7471 32.1065 30.8566 32.2819 30.9333 32.4683C31.0429 32.7424 30.895 32.9671 30.5937 32.9726C30.1992 32.9836 29.7992 32.9781 29.4048 32.9781C29.3281 32.9781 29.2568 32.9945 29.1856 33C26.6983 33 24.2109 33 21.7181 33C21.6359 32.8685 21.5318 32.7424 21.4661 32.5999C21.2853 32.1833 21.1483 31.7393 20.9346 31.3391C20.7593 31.0157 20.4909 30.7416 20.2553 30.4511C20.1676 30.3415 20.0526 30.3414 19.9101 30.3853C19.0007 30.6649 18.0857 30.9444 17.1653 31.1966C16.5243 31.372 15.8833 31.0102 15.6477 30.3963C15.4778 29.9523 15.4395 29.4973 15.5545 29.0313C15.6477 28.6531 15.5984 28.5599 15.2696 28.3626C15.2039 28.3242 15.1381 28.2859 15.0779 28.2475C14.8861 28.1269 14.793 27.9515 14.8259 27.7267C14.8423 27.6007 14.8806 27.4801 14.908 27.3485C14.8752 27.3211 14.8423 27.2937 14.8149 27.2718C14.3656 26.9155 14.3382 26.7565 14.6177 26.2522C14.6286 26.2303 14.6451 26.2028 14.656 26.1809C14.9464 25.6547 14.9245 25.5615 14.3876 25.2819C13.9931 25.101 13.6589 24.8763 13.5 24.4652C13.5 24.372 13.5 24.2733 13.5 24.1801Z" fill="white"/>
<path d="M23.7343 20.5897C23.2084 20.8254 22.7043 21.0502 22.2003 21.2749C22.2003 21.6148 22.2496 21.9492 22.1893 22.2616C21.9976 23.3031 21.0004 24.0431 19.965 23.9554C18.8582 23.8568 18.009 23.0071 17.9652 21.9546C17.9214 20.82 18.6665 19.8771 19.7622 19.7127C20.5895 19.5866 21.2689 19.8662 21.7949 20.513C21.8825 20.6226 21.9428 20.6336 22.0633 20.5788C22.4742 20.3869 22.8851 20.206 23.296 20.0306C23.4001 19.9867 23.4385 19.9429 23.4056 19.8168C23.0604 18.3806 23.6028 17.0705 24.8575 16.2867C24.8849 16.2702 24.9123 16.2483 24.9561 16.2209C24.8684 16.0016 24.7972 15.7824 24.6876 15.5795C24.6602 15.5247 24.5342 15.4973 24.452 15.5028C23.6795 15.5302 23.0111 15.1136 22.7262 14.4229C22.3866 13.5952 22.7317 12.6414 23.5152 12.2193C24.3096 11.7918 25.3012 12.0439 25.7943 12.7949C26.2874 13.5404 26.1395 14.538 25.4492 15.1081C25.4053 15.141 25.3615 15.1739 25.3067 15.2232C25.4053 15.4644 25.504 15.7111 25.6026 15.9687C26.7695 15.6947 27.7886 15.9578 28.6707 16.78C29.0651 16.4676 29.4541 16.1551 29.8486 15.8372C29.5473 15.2342 29.498 14.6203 29.7609 13.9954C29.9582 13.5294 30.2814 13.1841 30.7307 12.9539C31.6347 12.4934 32.7304 12.7401 33.344 13.5459C33.9522 14.3462 33.8974 15.4699 33.2399 16.2099C32.6592 16.8622 31.432 17.2788 30.2814 16.3908C29.8979 16.6978 29.5089 17.0102 29.1035 17.3337C29.4432 17.8928 29.613 18.4958 29.5856 19.1426C29.5582 19.7894 29.3446 20.3705 28.9556 20.9077C29.8815 21.7847 30.8019 22.6563 31.7223 23.5279C32.7907 23.04 33.6344 23.1935 34.1768 23.9664C34.6644 24.6626 34.5822 25.6054 33.985 26.2029C33.3933 26.8004 32.44 26.8881 31.7497 26.4057C30.9937 25.8849 30.8129 25.0243 31.2512 24.0431C30.3362 23.177 29.4213 22.3109 28.5282 21.4668C28.1338 21.6586 27.7722 21.8889 27.3777 22.0095C26.9832 22.1301 26.5504 22.1465 26.0957 22.2178C26.0354 22.4809 25.9642 22.7988 25.8929 23.1113C25.8217 23.4237 25.756 23.7362 25.6848 24.0651C25.7341 24.0979 25.7779 24.1363 25.8272 24.1692C26.3915 24.5584 26.5942 25.271 26.3258 25.8959C26.0573 26.5153 25.3944 26.8497 24.726 26.7072C24.085 26.5701 23.6138 25.9672 23.6302 25.3039C23.6467 24.6297 24.1343 24.0651 24.8082 23.9499C24.9451 23.928 25.0163 23.8842 25.0437 23.7307C25.1533 23.1825 25.2793 22.6344 25.3999 22.0917C25.4053 22.0643 25.4108 22.0369 25.4163 21.9985C24.7095 21.708 24.1452 21.2585 23.7343 20.5897ZM28.9008 18.9946C28.9008 17.6406 27.805 16.5443 26.4463 16.5443C25.0985 16.5443 23.9973 17.6516 24.0028 19.0055C24.0083 20.3485 25.104 21.4394 26.4518 21.4449C27.7995 21.4449 28.9008 20.3485 28.9008 18.9946ZM21.5483 21.7847C21.5428 21.0118 20.9237 20.3979 20.1458 20.3979C19.3733 20.3979 18.7542 21.0228 18.7487 21.7957C18.7487 22.5741 19.3842 23.199 20.1622 23.1935C20.9347 23.188 21.5483 22.5631 21.5483 21.7847ZM31.6949 16.188C32.4674 16.1935 33.0975 15.5741 33.103 14.8066C33.1084 14.0392 32.4839 13.4033 31.7223 13.3924C30.9443 13.3814 30.3088 14.0118 30.3088 14.7902C30.3033 15.5686 30.917 16.1825 31.6949 16.188ZM24.3534 14.7902C24.9396 14.7902 25.3999 14.3188 25.3944 13.7268C25.3889 13.1512 24.9177 12.6907 24.3425 12.6907C23.7562 12.6962 23.296 13.1676 23.3015 13.7542C23.307 14.3352 23.7782 14.7902 24.3534 14.7902ZM32.7578 25.9946C33.3331 25.9891 33.7988 25.5286 33.8042 24.9531C33.8042 24.372 33.3276 23.8951 32.7468 23.8951C32.1661 23.9006 31.7004 24.372 31.7059 24.964C31.7114 25.5451 32.1771 26.0001 32.7578 25.9946ZM25.0437 25.9946C25.4327 25.9946 25.7505 25.6876 25.7505 25.2984C25.7505 24.9147 25.4273 24.5913 25.0437 24.5968C24.6657 24.5968 24.3589 24.9037 24.3534 25.2875C24.3479 25.6766 24.6548 25.9891 25.0437 25.9946Z" fill="white"/>
<path d="M17.0938 18.4902C16.8528 18.4902 16.6884 18.3203 16.7267 18.101C17.05 16.2921 17.9923 14.6586 19.9592 14.0995C20.151 14.0447 20.3263 14.0337 20.4523 14.2256C20.5947 14.4503 20.4742 14.686 20.1674 14.7737C19.2196 15.0423 18.4909 15.596 18.0362 16.473C17.828 16.8732 17.6855 17.3117 17.5321 17.7393C17.4719 17.8982 17.4554 18.0736 17.4116 18.2381C17.3568 18.3971 17.2417 18.4793 17.0938 18.4902Z" fill="white"/>
<path d="M32.4508 19.614C32.4836 20.524 32.3467 21.3955 31.9741 22.2287C31.9029 22.3822 31.8097 22.4973 31.6289 22.4973C31.366 22.4973 31.2235 22.2561 31.3167 21.9875C31.4427 21.6093 31.5906 21.2311 31.6673 20.8364C31.8371 19.9594 31.7385 19.0823 31.6125 18.2052C31.6016 18.1285 31.5851 18.0572 31.5796 17.9805C31.5632 17.7722 31.6728 17.6297 31.8645 17.5913C32.0508 17.5584 32.2207 17.6571 32.259 17.8599C32.3247 18.1943 32.3686 18.5341 32.4069 18.874C32.4288 19.1207 32.4343 19.3673 32.4508 19.614Z" fill="white"/>
<path d="M27.0052 12.4112C27.0326 12.4167 27.0819 12.4221 27.1257 12.4441C27.7229 12.7346 28.3255 13.0251 28.9172 13.3376C29.0159 13.3924 29.109 13.5678 29.1035 13.6829C29.098 13.7871 28.972 13.9131 28.8624 13.968C28.7912 14.0063 28.6488 13.9625 28.5611 13.9186C27.9913 13.6555 27.4325 13.3705 26.8682 13.0964C26.6874 13.0087 26.5943 12.8607 26.6271 12.6907C26.6655 12.5318 26.8189 12.4057 27.0052 12.4112Z" fill="white"/>
<path d="M16.6501 19C16.8528 19 16.9953 19.148 16.9953 19.3508C16.9953 19.5427 16.8309 19.7016 16.6391 19.6962C16.4583 19.6907 16.3049 19.5317 16.2995 19.3508C16.294 19.159 16.4529 19 16.6501 19Z" fill="white"/>
<path d="M24.7038 18.9343C24.7202 18.0517 25.4763 17.2788 26.3638 17.2459C26.6268 17.235 26.7857 17.3556 26.7967 17.5693C26.8076 17.7886 26.6706 17.9202 26.4077 17.9421C25.8379 17.9859 25.4489 18.3806 25.3996 18.9617C25.3777 19.2138 25.2462 19.3454 25.038 19.3399C24.8298 19.3344 24.6983 19.1754 24.7038 18.9343Z" fill="white"/>
</g>
<defs>
<filter id="filter0_d_734_3887" x="0.5" y="0" width="48" height="48" filterUnits="userSpaceOnUse" color-interpolation-filters="sRGB">
<feFlood flood-opacity="0" result="BackgroundImageFix"/>
<feColorMatrix in="SourceAlpha" type="matrix" values="0 0 0 0 0 0 0 0 0 0 0 0 0 0 0 0 0 0 127 0" result="hardAlpha"/>
<feOffset dy="1"/>
<feGaussianBlur stdDeviation="2"/>
<feComposite in2="hardAlpha" operator="out"/>
<feColorMatrix type="matrix" values="0 0 0 0 0 0 0 0 0 0 0 0 0 0 0 0 0 0 0.15 0"/>
<feBlend mode="normal" in2="BackgroundImageFix" result="effect1_dropShadow_734_3887"/>
<feBlend mode="normal" in="SourceGraphic" in2="effect1_dropShadow_734_3887" result="shape"/>
</filter>
<clipPath id="clip0_734_3887">
<rect width="21" height="21" fill="white" transform="translate(13.5 12)"/>
</clipPath>
</defs>
</svg>
