<svg width="37" height="60" viewBox="0 0 37 60" fill="none" xmlns="http://www.w3.org/2000/svg">
<g clip-path="url(#clip0_397_116)">
<path d="M14.5093 56.0278C12.5056 55.911 12.5056 55.911 12.5056 53.975C12.5056 53.3574 12.5056 52.7232 12.5056 52.0056C12.2384 52.0056 12.0047 52.0223 11.7709 52.0056C10.3683 51.9388 8.91563 52.0223 7.54642 51.7385C3.45551 50.9207 0.533437 47.2656 0.516739 43.0932C0.500042 33.7969 0.500042 24.5174 0.516739 15.2211C0.516739 14.4033 0.850691 14.0028 1.5019 13.9861C2.1865 13.9861 2.50375 14.3866 2.50375 15.2545C2.50375 24.4172 2.50375 33.58 2.50375 42.7427C2.50375 45.7469 3.82286 48 6.54457 49.3018C7.37945 49.7024 8.3813 49.936 9.31637 49.9527C15.4444 50.0028 21.5724 50.0195 27.6837 49.9694C31.4908 49.936 34.4796 46.8818 34.4796 43.0765C34.513 32.395 34.4963 21.7135 34.4796 11.0153C34.4796 9.27955 33.2106 8.01112 31.4741 8.01112C22.808 7.99443 14.142 7.99443 5.47592 8.01112C3.82286 8.01112 2.60394 9.21279 2.48705 10.8484C2.43696 11.6662 2.08631 12.0501 1.41841 12.0167C0.767203 11.9833 0.449949 11.5494 0.483344 10.7316C0.633622 8.14464 2.80431 6.04172 5.42583 6.00834C8.19763 5.97496 10.9694 6.00834 13.7412 5.99165C13.975 5.99165 14.1921 5.99165 14.5093 5.99165C14.5093 5.35743 14.5093 4.7566 14.5093 4.17245C14.526 1.8025 16.2292 -7.11405e-06 18.4833 -7.11405e-06C20.7709 -0.016697 22.4908 1.78581 22.5075 4.18914C22.5075 4.77329 22.5075 5.34074 22.5075 5.99165C22.7746 5.99165 23.0084 5.99165 23.2255 5.99165C25.8971 5.99165 28.552 5.99165 31.2236 5.99165C34.3794 5.99165 36.5 8.11126 36.5 11.2823C36.5 21.7802 36.5 32.2782 36.5 42.7761C36.5 48.0501 32.5761 51.9555 27.2997 51.9722C26.3813 51.9722 25.4796 51.9722 24.5112 51.9722C24.5112 52.8567 24.5112 53.6912 24.5112 54.509C24.5112 55.6773 24.2273 55.9611 23.0919 55.9611C22.9249 55.9611 22.7579 55.9611 22.5075 55.9611C22.5075 56.879 22.5075 57.7636 22.5075 58.6481C22.5075 59.6161 22.1735 59.9499 21.1884 59.9499C19.3683 59.9499 17.565 59.9499 15.7449 59.9499C14.86 59.9499 14.5093 59.5994 14.5093 58.6982C14.4926 57.847 14.5093 56.9624 14.5093 56.0278ZM14.526 53.9583C17.1976 53.9583 19.8358 53.9583 22.4407 53.9583C22.4407 53.2907 22.4407 52.6565 22.4407 52.0389C19.7691 52.0389 17.1642 52.0389 14.526 52.0389C14.526 52.6732 14.526 53.2907 14.526 53.9583ZM20.4871 5.97496C20.4871 5.20723 20.5371 4.45618 20.4704 3.72183C20.3869 2.72044 19.5019 2.00277 18.5 2.00277C17.4982 2.00277 16.6132 2.72044 16.5297 3.72183C16.4629 4.45618 16.513 5.20723 16.513 5.97496C17.8488 5.97496 19.1179 5.97496 20.4871 5.97496ZM20.4871 56.0445C19.1679 56.0445 17.8655 56.0445 16.5464 56.0445C16.5464 56.6954 16.5464 57.3296 16.5464 57.9471C17.8822 57.9471 19.1846 57.9471 20.4871 57.9471C20.4871 57.2962 20.4871 56.6954 20.4871 56.0445Z" fill="#2ABFC4"/>
<path d="M6.49434 18.0418C6.49434 18.3088 6.49434 18.5425 6.49434 18.7594C6.49434 26.7038 6.49434 34.6315 6.49434 42.5759C6.49434 44.9458 7.54629 45.9806 9.93404 45.9806C15.6613 45.9806 21.3886 45.9806 27.1159 45.9806C29.3366 45.9806 30.3218 45.0626 30.4888 42.8763C30.5389 42.2754 30.9229 41.8916 31.4906 41.8916C32.075 41.8916 32.4591 42.2921 32.4925 42.943C32.576 45.6301 30.3719 47.9333 27.5834 47.9834C24.4108 48.0167 21.255 48.0001 18.0825 48.0001C15.3107 48.0001 12.5389 48.0001 9.76706 48.0001C6.59452 47.9834 4.50732 45.8971 4.50732 42.7094C4.50732 34.281 4.50732 25.8359 4.50732 17.4076C4.50732 16.306 4.80788 16.0056 5.92662 16.0056C14.3255 16.0056 22.7244 16.0056 31.1066 16.0056C32.2086 16.0056 32.4925 16.306 32.4925 17.4243C32.4925 24.4841 32.4925 31.5439 32.4925 38.6037C32.4925 38.7706 32.5092 38.9375 32.4925 39.1044C32.4424 39.6718 32.0416 40.0056 31.4906 40.0056C30.9396 40.0056 30.5556 39.6551 30.5055 39.0877C30.4888 38.8874 30.5055 38.6704 30.5055 38.4701C30.5055 31.9277 30.5055 25.3853 30.5055 18.8429C30.5055 18.5925 30.5055 18.3422 30.5055 18.0585C22.5073 18.0418 14.5426 18.0418 6.49434 18.0418Z" fill="#2ABFC4"/>
<path d="M24.4445 29.9916C23.5095 29.9916 22.5744 29.9916 21.6393 29.9916C20.9213 29.9916 20.5206 29.6412 20.5039 29.0236C20.4872 28.3894 20.9046 27.9889 21.6393 27.9889C23.5596 27.9722 25.4798 27.9889 27.3833 27.9889C28.1013 27.9889 28.502 28.3394 28.502 28.9569C28.5187 29.6078 28.118 29.975 27.3666 29.9916C26.3981 30.0083 25.413 29.9916 24.4445 29.9916Z" fill="#2ABFC4"/>
<path d="M24.4445 41.9917C23.5095 41.9917 22.5744 41.9917 21.6393 41.9917C20.9046 41.9917 20.5206 41.6412 20.5039 41.0403C20.4872 40.4061 20.9046 40.0056 21.6393 40.0056C23.5763 39.9889 25.5132 39.9889 27.4501 40.0056C28.1514 40.0056 28.5354 40.4061 28.5187 41.0236C28.502 41.6245 28.118 41.975 27.4501 41.9917C26.4482 42.0083 25.4464 41.9917 24.4445 41.9917Z" fill="#2ABFC4"/>
<path d="M25.513 21.9972C26.1642 21.9972 26.7987 21.9805 27.4499 21.9972C28.1178 22.0139 28.5019 22.3643 28.5186 22.9652C28.5353 23.5994 28.1512 23.9833 27.4499 23.9999C26.1475 24.0166 24.8284 24.0166 23.526 23.9999C22.8748 23.9833 22.4907 23.5994 22.4907 22.9986C22.4907 22.3977 22.8581 22.0139 23.526 22.0139C24.1939 21.9805 24.8451 21.9972 25.513 21.9972Z" fill="#2ABFC4"/>
<path d="M25.4796 36C24.8284 36 24.1939 36.0166 23.5427 36C22.8748 35.9833 22.4908 35.6328 22.4908 35.0319C22.4741 34.4478 22.8581 34.0306 23.5093 34.0139C24.8618 33.9972 26.2143 33.9972 27.5501 34.0139C28.1512 34.0306 28.5186 34.4311 28.5019 35.0153C28.5019 35.5994 28.1345 35.9833 27.5167 36C26.8488 36.0166 26.1642 36 25.4796 36Z" fill="#2ABFC4"/>
</g>
<defs>
<clipPath id="clip0_397_116">
<rect width="36" height="60" fill="white" transform="translate(0.5)"/>
</clipPath>
</defs>
</svg>
