<svg width="48" height="48" viewBox="0 0 48 48" fill="none" xmlns="http://www.w3.org/2000/svg">
<g filter="url(#filter0_d_734_3856)">
<circle cx="24" cy="23" r="20" fill="#F1634C"/>
</g>
<g clip-path="url(#clip0_734_3856)">
<path d="M19.0628 34C18.7163 33.874 18.3363 33.7918 18.0234 33.6055C17.3416 33.2001 16.9225 32.581 16.889 31.7921C16.8443 30.7895 16.8778 29.7869 16.8778 28.7678C17.0957 28.7678 17.3193 28.7678 17.5595 28.7678C17.5651 28.839 17.5707 28.9103 17.5707 28.987C17.5707 29.7978 17.5707 30.6142 17.5707 31.425C17.5707 32.1866 17.8781 32.7783 18.5934 33.1179C18.8225 33.2275 19.0795 33.2659 19.3533 33.3426C19.3533 33.5398 19.3533 33.7699 19.3533 34C19.2528 34 19.1578 34 19.0628 34Z" fill="white"/>
<path d="M18.2861 25.2559C18.1799 25.2559 18.1073 25.2559 18.0291 25.2559C17.0958 25.2559 16.1626 25.2559 15.2294 25.2559C14.4303 25.2559 14 24.834 14 24.0506C14 22.7466 14 21.4372 14 20.1333C14 19.3772 14.4359 18.9499 15.2015 18.9499C16.1403 18.9499 17.0847 18.9499 18.0235 18.9499C18.0961 18.9499 18.1744 18.9499 18.2805 18.9499C18.2805 18.8567 18.2805 18.7746 18.2805 18.6979C18.2805 17.7774 18.2805 16.8515 18.2805 15.9311C18.2805 15.323 18.5041 14.8299 19.0852 14.5614C19.2976 14.4628 19.5546 14.408 19.7893 14.408C22.589 14.397 25.3942 14.397 28.1939 14.4025C29.1104 14.4025 29.7027 14.9997 29.7027 15.9256C29.7083 17.1967 29.7027 18.4677 29.7027 19.7388C29.7027 19.821 29.7027 19.8977 29.7027 20.0073C29.8033 20.0073 29.8759 20.0073 29.9542 20.0073C30.893 20.0073 31.8374 20.0073 32.7762 20.0073C33.5641 20.0073 33.9888 20.4237 33.9888 21.2016C33.9888 22.7412 33.9776 24.2752 33.9944 25.8147C34 26.4557 33.5809 27.0255 32.7706 27.0091C31.8374 26.9872 30.9042 27.0036 29.9709 27.0036C29.8927 27.0036 29.8201 27.0036 29.7195 27.0036C29.7139 27.0968 29.7027 27.1789 29.7027 27.2556C29.7027 28.5267 29.6971 29.7978 29.7027 31.0688C29.7027 31.6879 29.4792 32.181 28.8868 32.455C28.6801 32.5481 28.4342 32.6029 28.2051 32.6029C25.3942 32.6138 22.589 32.6138 19.7782 32.6084C18.8673 32.6084 18.2805 32.0057 18.2805 31.0743C18.2749 29.2335 18.2805 27.3981 18.2805 25.5572C18.2861 25.4641 18.2861 25.3764 18.2861 25.2559ZM28.993 17.9144C25.6569 17.9144 22.3375 17.9144 19.0182 17.9144C19.0182 18.265 19.0182 18.5992 19.0182 18.9499C19.1132 18.9499 19.1858 18.9499 19.264 18.9499C20.2028 18.9499 21.1472 18.9499 22.0861 18.9499C22.846 18.9499 23.2819 19.3772 23.2875 20.1168C23.2875 21.4372 23.2875 22.7576 23.2875 24.0725C23.2875 24.8231 22.8516 25.2504 22.0749 25.2504C21.8905 25.2504 21.7061 25.2504 21.4937 25.2504C21.4937 25.5846 21.4881 25.8914 21.4937 26.1928C21.4937 26.3571 21.4714 26.5105 21.3037 26.5982C21.1417 26.6859 20.9964 26.6256 20.8567 26.5324C20.4208 26.2476 19.9849 25.9627 19.5546 25.6778C19.3814 25.5682 19.2082 25.4531 19.0126 25.3271C19.0126 26.5982 19.0126 27.8364 19.0126 29.0801C22.3431 29.0801 25.6569 29.0801 28.9707 29.0801C28.9707 28.4117 28.9707 27.7652 28.9707 27.0913C28.8868 27.1406 28.831 27.1735 28.7751 27.2118C28.2274 27.5679 27.6854 27.924 27.1433 28.2802C27.0036 28.3733 26.8583 28.4336 26.6963 28.3569C26.5175 28.2747 26.4951 28.1103 26.5007 27.9405C26.5063 27.6337 26.5007 27.3323 26.5007 27.0146C26.4169 27.0091 26.3554 27.0036 26.2939 27.0036C26.1431 27.0036 25.9866 27.0036 25.8357 27.0036C25.154 26.9872 24.7181 26.5598 24.7125 25.886C24.7069 24.341 24.7293 22.796 24.7013 21.2509C24.6901 20.5551 25.1037 19.9744 25.9754 20.0018C26.9086 20.0292 27.8419 20.0018 28.7751 20.0128C28.9539 20.0128 28.9986 19.958 28.993 19.7936C28.9818 19.4101 28.9874 19.0266 28.9874 18.6431C28.993 18.402 28.993 18.1664 28.993 17.9144ZM27.2104 27.3981C27.7189 27.0639 28.1827 26.7461 28.6633 26.4557C28.8086 26.3681 28.9986 26.3078 29.1662 26.3078C30.3845 26.2969 31.6027 26.3023 32.8265 26.3023C33.145 26.3023 33.2791 26.1763 33.2791 25.875C33.2791 24.2971 33.2791 22.7192 33.2791 21.1414C33.2791 20.84 33.145 20.714 32.8488 20.714C30.513 20.714 28.1827 20.714 25.8469 20.714C25.5563 20.714 25.4278 20.8455 25.4222 21.1304C25.4222 22.7138 25.4222 24.3026 25.4222 25.886C25.4222 26.1763 25.5563 26.3023 25.8636 26.3078C26.1654 26.3133 26.4616 26.3023 26.7633 26.3078C27.0763 26.3133 27.2048 26.4448 27.2104 26.7461C27.216 26.9434 27.2104 27.1461 27.2104 27.3981ZM20.7784 25.6449C20.7784 25.3929 20.7728 25.1847 20.7784 24.971C20.784 24.6861 20.9125 24.5601 21.2031 24.5546C21.4881 24.5491 21.7731 24.5546 22.0581 24.5546C22.4493 24.5546 22.5666 24.4396 22.5666 24.0506C22.5666 22.7521 22.5666 21.4537 22.5666 20.1552C22.5666 19.7662 22.4493 19.6512 22.0581 19.6512C19.7782 19.6512 17.4982 19.6512 15.2182 19.6512C14.827 19.6512 14.7097 19.7662 14.7097 20.1552C14.7097 21.4427 14.7097 22.7247 14.7097 24.0122C14.7097 24.456 14.8103 24.5546 15.2629 24.5546C16.4364 24.5546 17.6044 24.5601 18.7779 24.5491C19.0014 24.5491 19.197 24.5985 19.3814 24.7245C19.8284 25.0313 20.2867 25.3216 20.7784 25.6449ZM19.0126 29.8142C19.0126 30.3292 18.9958 30.8223 19.0182 31.3099C19.0293 31.5948 19.2249 31.7811 19.5043 31.8633C19.6161 31.8961 19.739 31.9016 19.8564 31.9016C22.6169 31.9016 25.3775 31.9016 28.138 31.9016C28.1939 31.9016 28.2498 31.9016 28.3057 31.8961C28.6968 31.8633 28.9707 31.6058 28.9874 31.2222C29.0042 30.773 28.993 30.3183 28.9874 29.869C28.9874 29.8526 28.9707 29.8307 28.9595 29.8087C25.6513 29.8142 22.3431 29.8142 19.0126 29.8142ZM28.9763 17.1912C28.9763 16.6762 28.993 16.1776 28.9651 15.6791C28.9595 15.5421 28.8421 15.3887 28.7415 15.2791C28.5851 15.1148 28.3616 15.0983 28.1436 15.0983C25.3831 15.0983 22.6225 15.0983 19.862 15.0983C19.7446 15.0983 19.6217 15.1038 19.5099 15.1367C19.2529 15.2079 19.0517 15.3777 19.0349 15.6298C19.0014 16.1448 19.0237 16.6598 19.0237 17.1857C22.3375 17.1912 25.6457 17.1912 28.9763 17.1912Z" fill="white"/>
<path d="M31.1108 17.1912C30.8873 17.1912 30.6694 17.1912 30.4235 17.1912C30.4235 16.9447 30.4235 16.7091 30.4235 16.468C30.4179 16.0955 30.4235 15.7174 30.4067 15.3449C30.3676 14.4354 29.5908 13.6958 28.5682 13.7013C28.2441 13.7013 27.9144 13.7013 27.5791 13.7013C27.5791 13.4657 27.5791 13.252 27.5791 13.0055C28.3391 13.0109 29.1047 12.9014 29.8144 13.2904C30.3844 13.6026 30.7867 14.0519 30.9991 14.66C31.0549 14.8189 31.1052 14.9888 31.1108 15.1586C31.122 15.827 31.1108 16.4954 31.1108 17.1912Z" fill="white"/>
<path d="M31.1278 18.5938C30.8875 18.5938 30.6695 18.5938 30.4404 18.5938C30.4404 18.3692 30.4404 18.15 30.4404 17.9199C30.6695 17.9199 30.8931 17.9199 31.1278 17.9199C31.1278 18.1446 31.1278 18.3582 31.1278 18.5938Z" fill="white"/>
<path d="M16.8667 28.0391C16.8667 27.809 16.8667 27.5954 16.8667 27.3707C17.1014 27.3707 17.3249 27.3707 17.5596 27.3707C17.5596 27.5954 17.5596 27.809 17.5596 28.0391C17.3305 28.0391 17.107 28.0391 16.8667 28.0391Z" fill="white"/>
<path d="M28.2778 24.5547C28.0431 24.5547 27.842 24.5602 27.6408 24.5547C27.339 24.5437 27.2105 24.4232 27.2105 24.1219C27.2105 23.7055 27.2049 23.2891 27.2105 22.8727C27.2105 22.5878 27.339 22.4618 27.6296 22.4509C27.8364 22.4454 28.0431 22.4509 28.2722 22.4509C28.2722 22.2317 28.2667 22.0345 28.2722 21.8372C28.2778 21.525 28.4064 21.4099 28.7249 21.4044C29.144 21.4044 29.5631 21.4044 29.9766 21.4044C30.2784 21.4044 30.4069 21.525 30.4181 21.8263C30.4237 21.9304 30.4181 22.029 30.4181 22.1331C30.4181 22.2262 30.4181 22.3194 30.4181 22.4454C30.6137 22.4454 30.7925 22.4454 30.9713 22.4454C31.3737 22.4454 31.4854 22.5495 31.4854 22.9385C31.4854 23.3329 31.4854 23.7329 31.4854 24.1274C31.4854 24.4122 31.3569 24.5383 31.0663 24.5492C30.8596 24.5547 30.6528 24.5492 30.4237 24.5492C30.4237 24.7684 30.4293 24.9656 30.4237 25.1628C30.4181 25.4751 30.2896 25.5902 29.971 25.5957C29.5519 25.5957 29.1328 25.5957 28.7193 25.5957C28.4175 25.5957 28.289 25.4751 28.2778 25.1738C28.2722 25.0697 28.2778 24.9711 28.2778 24.867C28.2778 24.7738 28.2778 24.6807 28.2778 24.5547ZM29.7084 24.8889C29.7084 24.6752 29.7028 24.4835 29.7084 24.2972C29.714 23.9739 29.8313 23.8589 30.1666 23.8534C30.3678 23.8479 30.5634 23.8534 30.7646 23.8534C30.7646 23.6014 30.7646 23.3877 30.7646 23.1521C30.5578 23.1521 30.3678 23.1521 30.1722 23.1521C29.8257 23.1467 29.714 23.0316 29.7084 22.6919C29.7084 22.5002 29.7084 22.3139 29.7084 22.1221C29.4569 22.1221 29.2334 22.1221 29.0155 22.1221C29.0043 22.1495 28.9987 22.166 28.9987 22.1769C28.9987 22.3522 28.9987 22.533 28.9931 22.7084C28.9875 23.0316 28.8702 23.1467 28.5349 23.1521C28.3337 23.1576 28.1381 23.1521 27.9258 23.1521C27.9258 23.2946 27.9258 23.4042 27.9258 23.5137C27.9258 23.6233 27.9258 23.7274 27.9258 23.8589C28.1437 23.8589 28.3337 23.8589 28.5293 23.8589C28.8758 23.8644 28.9875 23.9794 28.9931 24.3191C28.9931 24.5109 28.9931 24.6971 28.9931 24.8944C29.239 24.8889 29.4625 24.8889 29.7084 24.8889Z" fill="white"/>
<path d="M21.4827 21.7605C21.4827 21.9906 21.4827 22.2098 21.4827 22.4344C19.5884 22.4344 17.7051 22.4344 15.8052 22.4344C15.8052 22.2152 15.8052 21.9906 15.8052 21.7605C17.694 21.7605 19.5772 21.7605 21.4827 21.7605Z" fill="white"/>
<path d="M20.0575 23.1686C20.0575 23.3987 20.0575 23.6178 20.0575 23.8425C18.6381 23.8425 17.2243 23.8425 15.7993 23.8425C15.7993 23.6178 15.7993 23.3987 15.7993 23.1686C17.2131 23.1686 18.6269 23.1686 20.0575 23.1686Z" fill="white"/>
<path d="M17.9395 21.0373C17.9395 20.8072 17.9395 20.5935 17.9395 20.3634C19.1186 20.3634 20.2921 20.3634 21.4768 20.3634C21.4768 20.5826 21.4768 20.8072 21.4768 21.0373C20.3032 21.0373 19.1297 21.0373 17.9395 21.0373Z" fill="white"/>
<path d="M16.5146 21.0318C16.5146 20.8072 16.5146 20.588 16.5146 20.3634C16.7494 20.3634 16.9729 20.3634 17.2076 20.3634C17.2076 20.588 17.2076 20.8017 17.2076 21.0318C16.9841 21.0318 16.7605 21.0318 16.5146 21.0318Z" fill="white"/>
<path d="M23.6509 30.5155C23.8856 30.5155 24.1091 30.5155 24.3382 30.5155C24.3382 30.7456 24.3382 30.9648 24.3382 31.1949C24.1035 31.1949 23.8856 31.1949 23.6509 31.1949C23.6509 30.9702 23.6509 30.7511 23.6509 30.5155Z" fill="white"/>
<path d="M22.9409 15.8105C23.1756 15.8105 23.388 15.8105 23.6227 15.8105C23.6227 16.0407 23.6227 16.2598 23.6227 16.4899C23.3991 16.4899 23.1756 16.4899 22.9409 16.4899C22.9409 16.2653 22.9409 16.0461 22.9409 15.8105Z" fill="white"/>
<path d="M24.3716 15.8105C24.6063 15.8105 24.8242 15.8105 25.0589 15.8105C25.0589 16.0352 25.0589 16.2488 25.0589 16.479C24.8354 16.479 24.6119 16.479 24.3716 16.479C24.3716 16.2598 24.3716 16.0407 24.3716 15.8105Z" fill="white"/>
</g>
<defs>
<filter id="filter0_d_734_3856" x="0" y="0" width="48" height="48" filterUnits="userSpaceOnUse" color-interpolation-filters="sRGB">
<feFlood flood-opacity="0" result="BackgroundImageFix"/>
<feColorMatrix in="SourceAlpha" type="matrix" values="0 0 0 0 0 0 0 0 0 0 0 0 0 0 0 0 0 0 127 0" result="hardAlpha"/>
<feOffset dy="1"/>
<feGaussianBlur stdDeviation="2"/>
<feComposite in2="hardAlpha" operator="out"/>
<feColorMatrix type="matrix" values="0 0 0 0 0 0 0 0 0 0 0 0 0 0 0 0 0 0 0.15 0"/>
<feBlend mode="normal" in2="BackgroundImageFix" result="effect1_dropShadow_734_3856"/>
<feBlend mode="normal" in="SourceGraphic" in2="effect1_dropShadow_734_3856" result="shape"/>
</filter>
<clipPath id="clip0_734_3856">
<rect width="20" height="21" fill="white" transform="translate(14 13)"/>
</clipPath>
</defs>
</svg>
